<svg xmlns="http://www.w3.org/2000/svg" viewBox="0 0 120 121" width="40" height="40"><g fill="none" fill-rule="evenodd"><path fill="#1E5A96" d="M29.882 90.896c-16.633-16.634-16.633-43.6 0-60.235 16.634-16.63 43.602-16.63 60.234.01 16.636 16.64 16.634 43.6 0 60.24-16.633 16.64-43.598 16.64-60.234 0zm.87-.87C14.6 73.87 14.6 47.683 30.752 31.53c16.153-16.153 42.343-16.152 58.495 0 16.154 16.154 16.154 42.34 0 58.495-16.153 16.153-42.34 16.154-58.495 0zm71.674 13.18c23.432-23.434 23.432-61.424 0-84.856-23.43-23.43-61.42-23.43-84.85 0-23.434 23.432-23.433 61.423-.004 84.856 23.43 23.43 61.423 23.43 84.854 0"></path><path fill="#FFF" d="M81.064 61.956c-1.5 4.07-10.273 4.034-22.185 4.07 0 0 7.69-1.088 9.92-5.385 2.22-4.29 4.84-13 4.84-13-11.85 0-12.91 4.16-12.91 4.16s-7.49 20.94-10.17 28.67c-20.76 0-17.44-10.25-17.44-10.25L43.51 41.1h21.03l-1.4 4.19s1.71-4.194 13.303-4.194c0 0 11.882.054 10.486 4.218-1.4 4.16-5.88 16.65-5.88 16.65m-60.3 31.45c.2-.18.43-.26.68-.243.25.02.47.14.66.36.19.23.28.47.27.72-.02.25-.13.47-.34.65l-.22.19c-.22.19-.44.27-.69.25-.25-.02-.47-.14-.66-.37-.2-.23-.29-.46-.27-.71.01-.25.13-.46.34-.64l.21-.18zm10.27 9.59l.99.654c.29.19.56.255.81.196.25-.06.46-.214.63-.464.17-.255.23-.514.18-.777-.05-.263-.21-.49-.5-.68l-1-.654L31 103zm-.68 1.025L29.05 106l-1.337-.886 3.78-5.743 2.337 1.54c.683.45 1.108.98 1.28 1.59.17.62.07 1.2-.3 1.77-.37.57-.87.89-1.5.98-.623.09-1.28-.1-1.96-.55l-.993-.65zm12.49 1.57l-1.86 4.1c-.33.71-.81 1.16-1.47 1.34-.66.18-1.37.09-2.13-.26-.78-.35-1.32-.83-1.62-1.44-.3-.61-.29-1.27.03-1.99l1.86-4.11 1.46.66-1.86 4.1c-.18.38-.21.71-.09.99.11.27.35.49.71.65.36.16.68.19.96.1.27-.1.5-.34.67-.73l1.86-4.1 1.45.66zm2.11 6.58l3.01.85-.33 1.18-4.91-1.38.19-.69 4.29-3.92-2.98-.84.33-1.19 4.88 1.37-.19.66-4.32 3.94zm7.43 1.6l3.1.41-.16 1.21-5.06-.67.09-.71 3.69-4.49-3.06-.41.16-1.22 5.02.66-.09.68-3.72 4.51zm7.35.54l2.96-.05.02 1.22-4.56.07-.12-6.88 1.6-.03.09 5.65zm9.49-2.5l-2.67.37.23 1.69 3.15-.44.17 1.21-4.74.65-.95-6.81 4.74-.66.17 1.21-3.16.44.2 1.46 2.67-.37.17 1.21zm9.09.58l-1.51.51-2.21-6.52 1.5-.51 2.21 6.51zm4.84-8.23l-1.64.77 2.39 5.11-1.45.68-2.4-5.12-1.63.76-.52-1.12 4.72-2.21.52 1.11zm7.9-1.17l.02.02c.42.69.55 1.33.42 1.93-.14.6-.56 1.13-1.27 1.6-.71.46-1.43.63-2.16.48-.73-.15-1.33-.57-1.79-1.26l-.79-1.2c-.46-.7-.62-1.4-.48-2.12.14-.72.55-1.31 1.23-1.76.72-.48 1.4-.66 2.02-.55.62.11 1.18.49 1.68 1.13v.03l-1.3.85c-.26-.36-.53-.59-.8-.67-.27-.08-.58-.01-.94.23-.3.2-.46.47-.47.83-.01.35.11.73.37 1.13l.79 1.21c.26.4.57.66.92.78.35.12.69.07 1.02-.15.32-.21.49-.45.51-.71.02-.26-.08-.58-.31-.97l1.3-.86zm6.82-8.05c-.21-.18-.32-.4-.34-.65-.02-.25.07-.49.26-.71.19-.23.42-.35.67-.37.25-.02.47.06.68.24l.21.18c.21.18.32.4.33.64.01.24-.08.48-.28.7-.2.23-.42.35-.67.37-.25.02-.48-.06-.69-.24l-.22-.19zM10.7 65.5l.03-.014c.75-.048 1.373.128 1.868.527.495.4.802.99.92 1.768.124.83-.073 1.54-.59 2.13-.52.6-1.25.97-2.195 1.11l-1.203.18c-.94.14-1.748.01-2.422-.41-.674-.41-1.073-1.03-1.198-1.85-.118-.78-.005-1.44.343-1.96.345-.52.892-.87 1.637-1.05l.032.01.084.57c-.6.18-1.038.46-1.312.85-.273.39-.363.89-.268 1.52.097.64.426 1.12.986 1.44.56.32 1.23.41 2.013.3l1.213-.18c.792-.12 1.407-.41 1.847-.88.44-.46.61-1.02.513-1.67-.094-.62-.326-1.08-.695-1.37-.367-.29-.873-.43-1.516-.41l-.086-.57zm2.24-8.03l-.01.612-3.44-.056-.07 4.253 3.44.05-.01.61-7.477-.12.01-.61 3.513.05.07-4.26-3.513-.06.008-.61 7.48.12zm-2.17-4.01l.53-2.973-4.247.754-.004.04 3.72 2.19zm1.106-3.073l-.602 3.372 1.918 1.12-.112.62-6.862-4.11.1-.58 7.86-1.46-.113.62-2.187.39zm4.685-8.076l-.2.58-7.48 1.83v.03l6.05 2.17-.2.58-7.04-2.52.21-.58 7.48-1.83.01-.03-6.04-2.16.21-.58 7.04 2.52zm2.92-7.41c.13.27.18.65.15 1.14s-.21 1.03-.54 1.62c-.42.76-1.03 1.24-1.82 1.43-.79.2-1.59.07-2.41-.4l-1.2-.67c-.8-.45-1.33-1.05-1.58-1.8-.24-.74-.16-1.48.25-2.22.4-.7.88-1.15 1.45-1.35.58-.2 1.16-.17 1.76.09l.02.03-.28.5c-.48-.16-.93-.18-1.37-.04-.43.14-.8.49-1.12 1.05-.33.58-.38 1.17-.16 1.77.23.59.67 1.08 1.33 1.45l1.2.68c.68.39 1.35.51 2 .38.65-.13 1.14-.51 1.49-1.12.24-.43.39-.83.44-1.2.05-.37.03-.65-.05-.84l-1.7-.96-.97 1.73-.45-.26 1.28-2.27 2.32 1.31zm2.67-2.16l-.36.5-6.03-4.42.37-.49 6.04 4.42zm5.38-6.19l-.41.45-7.59-1.3-.01.03 4.69 4.4-.42.45-5.45-5.12.42-.45 7.59 1.3.02-.02-4.68-4.39.42-.44 5.46 5.12zm5.64-5.65c.02.3-.09.66-.32 1.1-.22.44-.6.86-1.14 1.27-.69.53-1.44.72-2.24.59-.8-.13-1.49-.57-2.06-1.32l-.83-1.09c-.56-.73-.8-1.49-.73-2.28.07-.78.44-1.43 1.11-1.94.64-.48 1.27-.7 1.87-.66.61.05 1.13.31 1.58.77l.01.03-.45.35c-.37-.34-.78-.54-1.23-.58-.45-.04-.93.13-1.45.52-.53.4-.82.92-.85 1.56-.03.63.18 1.25.64 1.86l.84 1.1c.47.62 1.03 1 1.68 1.13.65.13 1.26-.01 1.81-.43.4-.3.69-.61.89-.93.2-.32.29-.58.3-.79l-1.18-1.56-1.58 1.2-.31-.42 2.07-1.58 1.61 2.12zm6.59-2.66l-.55.27-3.26-6.73.56-.27 3.27 6.73zm5.04-9.42l-2.42.86 2.31 6.57-.58.2-2.31-6.57-2.43.85-.17-.49 5.44-1.91.17.49zm11.5 1.44l-3.61.42.41 3.49-.6.07-.86-7.43 4.74-.55.06.52-4.13.48.34 2.91 3.62-.42.06.52zm7.88-.81c.03-.8-.15-1.46-.54-1.97s-.95-.77-1.67-.8c-.71-.02-1.27.2-1.69.68-.41.48-.63 1.13-.66 1.93l-.04 1.23c-.03.82.15 1.48.53 1.99s.93.78 1.64.8c.73.03 1.3-.2 1.73-.67.42-.47.65-1.12.68-1.94l.05-1.23zm.57 1.25c-.03.97-.32 1.74-.87 2.31-.55.58-1.27.85-2.16.82-.88-.03-1.57-.35-2.07-.97-.5-.61-.73-1.4-.7-2.37L59 9.27c.035-.96.323-1.73.865-2.31.54-.58 1.25-.852 2.127-.82.89.03 1.59.357 2.095.975.51.62.748 1.41.714 2.37l-.05 1.215zm3.54-.28l1.81.36c.67.14 1.18.1 1.54-.1.36-.21.59-.53.68-.99.1-.48.02-.88-.23-1.21-.25-.32-.68-.55-1.3-.67l-1.88-.38-.6 2.98zm-.11.51l-.66 3.32-.6-.12L68.4 6.8l2.48.5c.79.16 1.36.45 1.71.88.35.43.46.976.324 1.637-.08.39-.26.718-.547.98-.29.26-.65.42-1.09.48.43.205.713.474.854.81.14.33.17.72.08 1.164l-.14.69c-.04.23-.06.44-.04.63s.08.36.18.5l-.02.12-.61-.12c-.1-.14-.15-.33-.16-.56 0-.23.02-.46.06-.69l.14-.67c.09-.45.02-.83-.22-1.15-.24-.32-.61-.53-1.14-.63l-2.05-.41zm16.97 1.9l-2.34-1.07-2.9 6.32-.56-.25 2.9-6.32-2.34-1.07.22-.47 5.24 2.41-.21.48zm3.38 10.36l-.51-.34L89.94 20l-3.53-2.37-1.92 2.855-.51-.34 4.17-6.21.51.34-1.96 2.92 3.53 2.37 1.96-2.92.51.34-4.17 6.21zm7.54 1.85l-2.64-2.45-2.1 2.28 3.03 2.81-.36.39-3.47-3.22 5.08-5.48 3.46 3.2-.35.39-3.01-2.78-1.91 2.06 2.64 2.45-.35.39zm5.31 5.47l.98 1.42c.31.45.64.73 1 .84.37.11.74.04 1.12-.22.39-.26.6-.59.62-.99.02-.39-.14-.84-.48-1.34l-.89-1.29-2.34 1.6zm-.43.3l-2.54 1.73 1.12 1.63c.31.46.67.74 1.07.84.4.11.81.02 1.21-.25.37-.25.59-.57.66-.97.08-.4-.04-.82-.35-1.27l-1.17-1.71zm-3.31 1.53l6.17-4.22 1.23 1.8c.44.64.65 1.23.62 1.78-.02.54-.3 1-.85 1.37-.31.22-.65.32-1.01.3-.36-.02-.68-.15-.99-.39.19.43.22.85.1 1.28-.12.43-.37.77-.74 1.03-.55.38-1.1.49-1.64.34-.54-.15-1.02-.53-1.43-1.13l-1.46-2.13zm8.97 8.23l-1.57-3.24-2.79 1.36 1.81 3.71-.47.23-2.07-4.26 6.73-3.27 2.06 4.23-.47.23-1.8-3.68-2.52 1.23 1.58 3.24-.47.23zm5.95 7.08l-.75-2.46-6.65 2.05-.18-.59 6.65-2.04-.75-2.46.5-.15 1.7 5.51-.5.16zm1.4 8.38l-.36-2.54-6.89.98-.08-.61 6.89-.97-.36-2.54.52-.07.81 5.705-.52.07zm-3.23 7.25l.06-3.6-3.09-.05-.07 4.13h-.52l.08-4.74 7.48.12-.07 4.71-.52-.01.07-4.1-2.81-.04-.06 3.6-.52-.01zm-.02 3.73l-.28 1.82c-.1.67-.05 1.18.17 1.53.22.35.56.56 1.02.64.49.08.89-.02 1.2-.28.31-.26.52-.71.62-1.32l.3-1.89-3.01-.48zm-.51-.08l-3.34-.53.1-.6 7.38 1.17-.4 2.5c-.12.79-.39 1.37-.81 1.74-.41.37-.95.5-1.62.39-.39-.06-.72-.23-.99-.51-.27-.27-.45-.63-.52-1.06-.19.44-.44.74-.77.89-.32.16-.71.2-1.16.13l-.69-.11c-.23-.04-.44-.04-.63-.02s-.35.09-.49.2l-.12-.02.1-.62c.14-.11.33-.17.55-.18.23-.01.46 0 .7.04l.68.107c.46.08.84-.01 1.15-.26.31-.254.51-.64.59-1.165l.33-2.07z"></path></g></svg>
