<svg xmlns="http://www.w3.org/2000/svg" xmlns:xlink="http://www.w3.org/1999/xlink" viewBox="0 0 600 600"><defs><style>.cls-1{fill:none;}.cls-12,.cls-2{fill:#fff;}.cls-3{fill:#d2e9e7;}.cls-4,.cls-9{fill:#1d1d1b;}.cls-10,.cls-11,.cls-12,.cls-4,.cls-9{fill-rule:evenodd;}.cls-4,.cls-8{opacity:0.2;mix-blend-mode:multiply;}.cls-5{fill:#7fb1b1;}.cls-6{fill:#c0e2e4;}.cls-7{fill:#a7cfd1;}.cls-8{fill:#238bca;stroke-width:1.65px;}.cls-17,.cls-8{stroke:#fff;}.cls-17,.cls-19,.cls-8{stroke-miterlimit:10;}.cls-10{fill:#777778;}.cls-11{fill:#f9d20c;}.cls-13,.cls-14,.cls-15,.cls-16{mix-blend-mode:screen;}.cls-13{fill:url(#Unbenannter_Verlauf_16);}.cls-14{fill:url(#Unbenannter_Verlauf_16-2);}.cls-15{fill:url(#Unbenannter_Verlauf_16-3);}.cls-16{fill:url(#Unbenannter_Verlauf_16-4);}.cls-17{fill:#1e5a96;}.cls-18{clip-path:url(#clip-path);}.cls-19{fill:#74bad6;stroke:#000;}</style><radialGradient id="Unbenannter_Verlauf_16" cx="17.06" cy="-109400.73" r="17.06" gradientTransform="matrix(1 0 0 .1 0 7664.2)" gradientUnits="userSpaceOnUse"><stop offset="0" stop-color="#fff"/><stop offset=".03" stop-color="#fff" stop-opacity=".9"/><stop offset=".1" stop-color="#fff" stop-opacity=".71"/><stop offset=".17" stop-color="#fff" stop-opacity=".54"/><stop offset=".24" stop-color="#fff" stop-opacity=".4"/><stop offset=".32" stop-color="#fff" stop-opacity=".27"/><stop offset=".41" stop-color="#fff" stop-opacity=".17"/><stop offset=".51" stop-color="#fff" stop-opacity=".1"/><stop offset=".62" stop-color="#fff" stop-opacity=".04"/><stop offset=".75" stop-color="#fff" stop-opacity=".01"/><stop offset="1" stop-color="#fff" stop-opacity="0"/></radialGradient><radialGradient id="Unbenannter_Verlauf_16-2" cx="7.67" cy="125744.3" r="17.06" gradientTransform="matrix(0 1 -.1 0 8806.6 9.4)" xlink:href="#Unbenannter_Verlauf_16"/><radialGradient id="Unbenannter_Verlauf_16-3" cx="-3391.81" cy="8148.38" r="7.98" gradientTransform="matrix(0 1 -.1 0 586.3 3408.8)" xlink:href="#Unbenannter_Verlauf_16"/><radialGradient id="Unbenannter_Verlauf_16-4" cx="8224.12" cy="174606.12" r="7.98" gradientTransform="matrix(-1 0 0 -.1 8241.2 12215.4)" xlink:href="#Unbenannter_Verlauf_16"/><clipPath id="clip-path"><circle cx="299.84" cy="299.51" r="294.87" class="cls-1"/></clipPath><symbol id="New_Symbol" data-name="New Symbol" viewBox="0 0 11.43 11.43"><circle cx="5.71" cy="5.71" r="5.71" class="cls-2"/></symbol><symbol id="pinguin" data-name="pinguin" viewBox="0 0 1065.61 1065.62"><path id="boden" d="M952.17 653.9v265.57h-839.3V653.9h839.3z" class="cls-3"/><path id="schatten" d="M496.64 854.15l44.03-10.73v-21.45l44.05-10.74-.13-.03 57.52-16.02-58.43-14.25h125l-36.2 8.83.47 42.9 36.83 8.98H584.86v12.48l.15.03-.13.04v.1l-.26-.07-43.77 10.68-44.18 10.78v-21.56z" class="cls-4"/><g id="eis"><path d="M472.2 844.74V717.96l-78.03 61.84-13.97 64.94h92z" class="cls-5"/><path d="M112.46 750.7l359.73-34.55-78.05 63.65 107.7 29.24 168.36 26.68 145.66-71.77 136.3 20.74v131.86H112.52l-.07-165.88z" class="cls-6"/></g><g id="berge"><path d="M291.8 653.9l67.65-86h32.57l21.5-87.53 30.52-45.9L491.8 653.9h-200z" class="cls-6"/><path d="M425.04 497.56l19.45-24.65-.48-39.1 47.75 220.1h-40.3l-29.4-63.36 2.94-92.96z" class="cls-7"/><path d="M400.4 611.77l24.64-114.2-2.94 92.95 29.4 63.4H388l12.4-42.15z" class="cls-5"/><path d="M338.8 625l14.35 28.9h50.82L338.8 625z" class="cls-5"/><path d="M310.14 630.13l28.73-4.78 14.28 28.56H291.8l18.34-23.75zm62.66-62.23h11.76l-17.35 69.7-11.95-5.3 17.57-64.4z" class="cls-7"/></g><g id="Ebene_1" data-name="Ebene 1"><path d="M729.37 587.64l59.7 108.95H663.5l65.87-108.98z" class="cls-7"/><path d="M698.6 629.45l14.15-38.18 16.62-3.63-24 49.47-4.3-2.33-7.4 34.75-4.92-1.17-14.52 28.27h-19.95l35.08-62.5 9.23-4.65z" class="cls-6"/></g><path id="color" d="M23.96 9.75h1003.82V1011.9H23.96z" class="cls-8"/><g id="pinguin-3" data-name="pinguin"><path d="M672.96 745.17V568.43L584.6 656.8l88.36 88.37z" class="cls-9"/><path d="M584.82 656.94L709.8 531.96h-125v124.98z" class="cls-10"/><path d="M496.22 391.68v88.37l44.18-44.18-44.18-44.2zm88.64 176.65v-88.37l-44.2 44.18 44.2 44.2z" class="cls-11"/><path d="M646.2 718.46l-62.5 62.48h125l-62.48-62.48z" class="cls-9"/><path d="M540.67 612.63l44.2 44.2v-88.4l-44.2-44.17v88.37z" class="cls-12"/><path d="M496.22 480.05l44.2 44.2 44.17-44.2-44.2-44.18-44.2 44.18z" class="cls-9"/><circle cx="542.51" cy="465.52" r="7.23" class="cls-2"/></g><g id="schnee"><g id="nieve"><use width="11.42" height="11.42" transform="matrix(.4 0 0 .4 315.5 111.8)" xlink:href="#New_Symbol"/><use width="11.42" height="11.42" transform="matrix(.4 0 0 .4 516 74.6)" xlink:href="#New_Symbol"/><use width="11.42" height="11.42" transform="matrix(.3 0 0 .3 623.3 80.3)" xlink:href="#New_Symbol"/><use width="11.42" height="11.42" transform="matrix(.4 0 0 .4 538.5 111.2)" xlink:href="#New_Symbol"/><use width="11.42" height="11.42" transform="matrix(.4 0 0 .4 731.4 49.3)" xlink:href="#New_Symbol"/><use width="11.42" height="11.42" transform="matrix(.2 0 0 .2 325.4 109.2)" xlink:href="#New_Symbol"/><use width="11.42" height="11.42" transform="matrix(.2 0 0 .2 505.1 158.3)" xlink:href="#New_Symbol"/><use width="11.42" height="11.42" transform="matrix(.2 0 0 .2 438 144.1)" xlink:href="#New_Symbol"/><use width="11.42" height="11.42" transform="matrix(.2 0 0 .2 530.8 108.5)" xlink:href="#New_Symbol"/><use width="11.42" height="11.42" transform="matrix(.2 0 0 .2 402.3 89.4)" xlink:href="#New_Symbol"/><use width="11.42" height="11.42" transform="matrix(.2 0 0 .2 620 88)" xlink:href="#New_Symbol"/><use width="11.42" height="11.42" transform="matrix(.2 0 0 .2 445.6 106.5)" xlink:href="#New_Symbol"/><use width="11.42" height="11.42" transform="matrix(.2 0 0 .2 302.1 133.9)" xlink:href="#New_Symbol"/><use width="11.42" height="11.42" transform="matrix(.2 0 0 .2 349.4 119.4)" xlink:href="#New_Symbol"/><use width="11.42" height="11.42" transform="matrix(.2 0 0 .2 656.2 110.6)" xlink:href="#New_Symbol"/><use width="11.42" height="11.42" transform="matrix(.2 0 0 .2 684.3 62.5)" xlink:href="#New_Symbol"/><use width="11.42" height="11.42" transform="matrix(.3 0 0 .3 340.4 29.1)" xlink:href="#New_Symbol"/><use width="11.42" height="11.42" transform="matrix(.2 0 0 .2 439.2 50.5)" xlink:href="#New_Symbol"/><use width="11.42" height="11.42" transform="matrix(.2 0 0 .2 358.2 92.7)" xlink:href="#New_Symbol"/><use width="11.42" height="11.42" transform="matrix(.2 0 0 .2 397.6 119.4)" xlink:href="#New_Symbol"/><use width="11.42" height="11.42" transform="matrix(.2 0 0 .2 598.2 88.1)" xlink:href="#New_Symbol"/><use width="11.42" height="11.42" transform="matrix(.2 0 0 .2 632.7 27.5)" xlink:href="#New_Symbol"/><use width="11.42" height="11.42" transform="matrix(.2 0 0 .2 475.2 28.7)" xlink:href="#New_Symbol"/><use width="11.42" height="11.42" transform="matrix(.2 0 0 .2 379.9 46.8)" xlink:href="#New_Symbol"/><use width="11.42" height="11.42" transform="matrix(.2 0 0 .2 335.9 80.3)" xlink:href="#New_Symbol"/><use width="11.42" height="11.42" transform="matrix(.3 0 0 .3 547.4 54.1)" xlink:href="#New_Symbol"/><use width="11.42" height="11.42" transform="matrix(.3 0 0 .3 312.1 50)" xlink:href="#New_Symbol"/><use width="11.42" height="11.42" transform="matrix(.2 0 0 .2 412.7 120.6)" xlink:href="#New_Symbol"/></g><g id="nieve-2" data-name="nieve"><use width="11.42" height="11.42" transform="matrix(-.4 0 0 -.4 569.5 680.1)" xlink:href="#New_Symbol"/><use width="11.42" height="11.42" transform="matrix(-.4 0 0 -.4 553.3 821)" xlink:href="#New_Symbol"/><use width="11.42" height="11.42" transform="matrix(-.3 0 0 -.3 388.3 789.9)" xlink:href="#New_Symbol"/><use width="11.42" height="11.42" transform="matrix(-.3 0 0 -.3 306.3 952.6)" xlink:href="#New_Symbol"/><use width="11.42" height="11.42" transform="matrix(-.4 0 0 -.4 530.8 784.4)" xlink:href="#New_Symbol"/><use width="11.42" height="11.42" transform="matrix(-.4 0 0 -.4 337.9 846.3)" xlink:href="#New_Symbol"/><use width="11.42" height="11.42" transform="matrix(-.2 0 0 -.2 743.9 786.4)" xlink:href="#New_Symbol"/><use width="11.42" height="11.42" transform="matrix(-.2 0 0 -.2 532.6 655.7)" xlink:href="#New_Symbol"/><use width="11.42" height="11.42" transform="matrix(-.2 0 0 -.2 631.3 751.4)" xlink:href="#New_Symbol"/><use width="11.42" height="11.42" transform="matrix(-.2 0 0 -.2 538.5 787)" xlink:href="#New_Symbol"/><use width="11.42" height="11.42" transform="matrix(-.2 0 0 -.2 667 806.2)" xlink:href="#New_Symbol"/><use width="11.42" height="11.42" transform="matrix(-.2 0 0 -.2 532.6 1020.6)" xlink:href="#New_Symbol"/><use width="11.42" height="11.42" transform="matrix(-.2 0 0 -.2 404.8 748.4)" xlink:href="#New_Symbol"/><use width="11.42" height="11.42" transform="matrix(-.2 0 0 -.2 623.6 789.1)" xlink:href="#New_Symbol"/><use width="11.42" height="11.42" transform="matrix(-.2 0 0 -.2 713.9 708.3)" xlink:href="#New_Symbol"/><use width="11.42" height="11.42" transform="matrix(-.2 0 0 -.2 719.9 776.1)" xlink:href="#New_Symbol"/><use width="11.42" height="11.42" transform="matrix(-.2 0 0 -.2 368.6 725.8)" xlink:href="#New_Symbol"/><use width="11.42" height="11.42" transform="matrix(-.2 0 0 -.2 385 833.1)" xlink:href="#New_Symbol"/><use width="11.42" height="11.42" transform="matrix(-.3 0 0 -.3 728.9 866.4)" xlink:href="#New_Symbol"/><use width="11.42" height="11.42" transform="matrix(-.2 0 0 -.2 630.1 845.1)" xlink:href="#New_Symbol"/><use width="11.42" height="11.42" transform="matrix(-.2 0 0 -.2 711.1 802.8)" xlink:href="#New_Symbol"/><use width="11.42" height="11.42" transform="matrix(-.2 0 0 -.2 671.7 776.1)" xlink:href="#New_Symbol"/><use width="11.42" height="11.42" transform="matrix(-.2 0 0 -.2 463.1 777.6)" xlink:href="#New_Symbol"/><use width="11.42" height="11.42" transform="matrix(-.2 0 0 -.2 436.6 868.1)" xlink:href="#New_Symbol"/><use width="11.42" height="11.42" transform="matrix(-.2 0 0 -.2 594.1 866.9)" xlink:href="#New_Symbol"/><use width="11.42" height="11.42" transform="matrix(-.2 0 0 -.2 689.4 848.7)" xlink:href="#New_Symbol"/><use width="11.42" height="11.42" transform="matrix(-.2 0 0 -.2 733.4 815.3)" xlink:href="#New_Symbol"/><use width="11.42" height="11.42" transform="matrix(-.3 0 0 -.3 521.9 841.5)" xlink:href="#New_Symbol"/><use width="11.42" height="11.42" transform="matrix(-.3 0 0 -.3 757.2 845.6)" xlink:href="#New_Symbol"/><use width="11.42" height="11.42" transform="matrix(-.3 0 0 -.3 560 904)" xlink:href="#New_Symbol"/><use width="11.42" height="11.42" transform="matrix(-.3 0 0 -.3 399.3 915.1)" xlink:href="#New_Symbol"/><use width="11.42" height="11.42" transform="matrix(-.3 0 0 -.3 346.1 997.9)" xlink:href="#New_Symbol"/><use width="11.42" height="11.42" transform="matrix(-.3 0 0 -.3 458.7 836.3)" xlink:href="#New_Symbol"/><use width="11.42" height="11.42" transform="matrix(-.3 0 0 -.3 702.5 981.5)" xlink:href="#New_Symbol"/><use width="11.42" height="11.42" transform="matrix(-.3 0 0 -.3 645.6 997.9)" xlink:href="#New_Symbol"/><use width="11.42" height="11.42" transform="matrix(-.2 0 0 -.2 684.7 918)" xlink:href="#New_Symbol"/><use width="11.42" height="11.42" transform="matrix(-.2 0 0 -.2 562 995.5)" xlink:href="#New_Symbol"/><use width="11.42" height="11.42" transform="matrix(-.2 0 0 -.2 707.1 930.4)" xlink:href="#New_Symbol"/><use width="11.42" height="11.42" transform="matrix(-.3 0 0 -.3 730.8 960.7)" xlink:href="#New_Symbol"/><use width="11.42" height="11.42" transform="matrix(-.3 0 0 -.3 609.1 979.8)" xlink:href="#New_Symbol"/><use width="11.42" height="11.42" transform="matrix(-.3 0 0 -.3 742.9 999.6)" xlink:href="#New_Symbol"/><use width="11.42" height="11.42" transform="matrix(-.2 0 0 -.2 656.6 774.9)" xlink:href="#New_Symbol"/></g><g id="nieve-3" data-name="nieve"><use width="11.42" height="11.42" transform="matrix(.4 0 0 .4 741.2 361.3)" xlink:href="#New_Symbol"/><use width="11.42" height="11.42" transform="matrix(.4 0 0 .4 677 569.9)" xlink:href="#New_Symbol"/><use width="11.42" height="11.42" transform="matrix(.4 0 0 .4 328.8 343.2)" xlink:href="#New_Symbol"/><use width="11.42" height="11.42" transform="matrix(.4 0 0 .4 380.4 472.4)" xlink:href="#New_Symbol"/><use width="11.42" height="11.42" transform="matrix(.3 0 0 .3 743.6 661.3)" xlink:href="#New_Symbol"/><use width="11.42" height="11.42" transform="matrix(.3 0 0 .3 328 306.9)" xlink:href="#New_Symbol"/><use width="11.42" height="11.42" transform="matrix(.4 0 0 .4 429.3 693.9)" xlink:href="#New_Symbol"/><use width="11.42" height="11.42" transform="matrix(.4 0 0 .4 353.4 911)" xlink:href="#New_Symbol"/><use width="11.42" height="11.42" transform="matrix(.4 0 0 .4 631.5 434)" xlink:href="#New_Symbol"/><use width="11.42" height="11.42" transform="matrix(.4 0 0 .4 461.9 489.7)" xlink:href="#New_Symbol"/><use width="11.42" height="11.42" transform="matrix(.4 0 0 .4 720.8 302.1)" xlink:href="#New_Symbol"/><use width="11.42" height="11.42" transform="matrix(.4 0 0 .4 595.8 446.6)" xlink:href="#New_Symbol"/><use width="11.42" height="11.42" transform="matrix(.2 0 0 .2 310 785.7)" xlink:href="#New_Symbol"/><use width="11.42" height="11.42" transform="matrix(.2 0 0 .2 401.1 654.5)" xlink:href="#New_Symbol"/><use width="11.42" height="11.42" transform="matrix(.2 0 0 .2 558.3 586.5)" xlink:href="#New_Symbol"/><use width="11.42" height="11.42" transform="matrix(.2 0 0 .2 449.7 728.4)" xlink:href="#New_Symbol"/><use width="11.42" height="11.42" transform="matrix(.2 0 0 .2 376.6 818.5)" xlink:href="#New_Symbol"/><use width="11.42" height="11.42" transform="matrix(.2 0 0 .2 574.3 508.6)" xlink:href="#New_Symbol"/><use width="11.42" height="11.42" transform="matrix(.2 0 0 .2 436.8 518.8)" xlink:href="#New_Symbol"/><use width="11.42" height="11.42" transform="matrix(.2 0 0 .2 708.8 944.1)" xlink:href="#New_Symbol"/><use width="11.42" height="11.42" transform="matrix(.2 0 0 .2 520.8 946.6)" xlink:href="#New_Symbol"/><use width="11.42" height="11.42" transform="matrix(.2 0 0 .2 494 587.7)" xlink:href="#New_Symbol"/><use width="11.42" height="11.42" transform="matrix(.2 0 0 .2 384 520)" xlink:href="#New_Symbol"/><use width="11.42" height="11.42" transform="matrix(.2 0 0 .2 623.9 493.4)" xlink:href="#New_Symbol"/><use width="11.42" height="11.42" transform="matrix(.2 0 0 .2 724.4 449)" xlink:href="#New_Symbol"/><use width="11.42" height="11.42" transform="matrix(.2 0 0 .2 531.6 547.3)" xlink:href="#New_Symbol"/><use width="11.42" height="11.42" transform="matrix(.2 0 0 .2 480 286.7)" xlink:href="#New_Symbol"/><use width="11.42" height="11.42" transform="matrix(.2 0 0 .2 724.4 614.9)" xlink:href="#New_Symbol"/><use width="11.42" height="11.42" transform="matrix(.2 0 0 .2 555.5 534.1)" xlink:href="#New_Symbol"/><use width="11.42" height="11.42" transform="matrix(.3 0 0 .3 399.1 596.3)" xlink:href="#New_Symbol"/><use width="11.42" height="11.42" transform="matrix(.2 0 0 .2 481.2 569.9)" xlink:href="#New_Symbol"/><use width="11.42" height="11.42" transform="matrix(.2 0 0 .2 439.2 573.5)" xlink:href="#New_Symbol"/><use width="11.42" height="11.42" transform="matrix(.2 0 0 .2 367.4 571.1)" xlink:href="#New_Symbol"/><use width="11.42" height="11.42" transform="matrix(.2 0 0 .2 598.2 564.4)" xlink:href="#New_Symbol"/><use width="11.42" height="11.42" transform="matrix(.2 0 0 .2 685.5 637.7)" xlink:href="#New_Symbol"/><use width="11.42" height="11.42" transform="matrix(.2 0 0 .2 401.1 546.1)" xlink:href="#New_Symbol"/><use width="11.42" height="11.42" transform="matrix(.2 0 0 .2 426.1 451.9)" xlink:href="#New_Symbol"/><use width="11.42" height="11.42" transform="matrix(.2 0 0 .2 378.5 727.2)" xlink:href="#New_Symbol"/><use width="11.42" height="11.42" transform="matrix(.2 0 0 .2 536.5 421.9)" xlink:href="#New_Symbol"/><use width="11.42" height="11.42" transform="matrix(.3 0 0 .3 340.7 450.2)" xlink:href="#New_Symbol"/><use width="11.42" height="11.42" transform="matrix(.2 0 0 .2 348.8 637.7)" xlink:href="#New_Symbol"/></g><g id="nieve-4" data-name="nieve"><use width="11.42" height="11.42" transform="matrix(.4 0 0 .4 551.9 213.8)" xlink:href="#New_Symbol"/><use width="11.42" height="11.42" transform="matrix(.4 0 0 .4 334.7 166.2)" xlink:href="#New_Symbol"/><use width="11.42" height="11.42" transform="matrix(.4 0 0 .4 424.4 286.7)" xlink:href="#New_Symbol"/><use width="11.42" height="11.42" transform="matrix(.3 0 0 .3 511 207.7)" xlink:href="#New_Symbol"/><use width="11.42" height="11.42" transform="matrix(.3 0 0 .3 743.6 93.3)" xlink:href="#New_Symbol"/><use width="11.42" height="11.42" transform="matrix(.4 0 0 .4 635.1 146.6)" xlink:href="#New_Symbol"/><use width="11.42" height="11.42" transform="matrix(.4 0 0 .4 411.5 180.4)" xlink:href="#New_Symbol"/><use width="11.42" height="11.42" transform="matrix(.4 0 0 .4 528.4 154.6)" xlink:href="#New_Symbol"/><use width="11.42" height="11.42" transform="matrix(.4 0 0 .4 426.8 207.4)" xlink:href="#New_Symbol"/><use width="11.42" height="11.42" transform="matrix(.4 0 0 .4 649.4 195.3)" xlink:href="#New_Symbol"/><use width="11.42" height="11.42" transform="matrix(.2 0 0 .2 313.8 237.4)" xlink:href="#New_Symbol"/><use width="11.42" height="11.42" transform="matrix(.2 0 0 .2 452.1 266.6)" xlink:href="#New_Symbol"/><use width="11.42" height="11.42" transform="matrix(.2 0 0 .2 454.6 255.2)" xlink:href="#New_Symbol"/><use width="11.42" height="11.42" transform="matrix(.2 0 0 .2 380.4 270.3)" xlink:href="#New_Symbol"/><use width="11.42" height="11.42" transform="matrix(.2 0 0 .2 464.3 196.5)" xlink:href="#New_Symbol"/><use width="11.42" height="11.42" transform="matrix(.2 0 0 .2 406.4 235.8)" xlink:href="#New_Symbol"/><use width="11.42" height="11.42" transform="matrix(.2 0 0 .2 331.2 229.9)" xlink:href="#New_Symbol"/><use width="11.42" height="11.42" transform="matrix(.2 0 0 .2 340 279)" xlink:href="#New_Symbol"/><use width="11.42" height="11.42" transform="matrix(.2 0 0 .2 364.9 159.5)" xlink:href="#New_Symbol"/><use width="11.42" height="11.42" transform="matrix(.2 0 0 .2 707.6 286.7)" xlink:href="#New_Symbol"/><use width="11.42" height="11.42" transform="matrix(.2 0 0 .2 617.5 144.1)" xlink:href="#New_Symbol"/><use width="11.42" height="11.42" transform="matrix(.2 0 0 .2 576.9 208.3)" xlink:href="#New_Symbol"/><use width="11.42" height="11.42" transform="matrix(.2 0 0 .2 689.1 105.3)" xlink:href="#New_Symbol"/><use width="11.42" height="11.42" transform="matrix(.2 0 0 .2 607.4 181.6)" xlink:href="#New_Symbol"/><use width="11.42" height="11.42" transform="matrix(.2 0 0 .2 649.4 268.1)" xlink:href="#New_Symbol"/><use width="11.42" height="11.42" transform="matrix(.2 0 0 .2 720.7 248.1)" xlink:href="#New_Symbol"/><use width="11.42" height="11.42" transform="matrix(.2 0 0 .2 653.7 231.8)" xlink:href="#New_Symbol"/><use width="11.42" height="11.42" transform="matrix(.3 0 0 .3 374.7 300.5)" xlink:href="#New_Symbol"/><use width="11.42" height="11.42" transform="matrix(.2 0 0 .2 591.4 227.6)" xlink:href="#New_Symbol"/><use width="11.42" height="11.42" transform="matrix(.2 0 0 .2 450.9 181.6)" xlink:href="#New_Symbol"/><use width="11.42" height="11.42" transform="matrix(.2 0 0 .2 372.4 196.5)" xlink:href="#New_Symbol"/><use width="11.42" height="11.42" transform="matrix(.2 0 0 .2 396.4 226.3)" xlink:href="#New_Symbol"/><use width="11.42" height="11.42" transform="matrix(.2 0 0 .2 528.9 328)" xlink:href="#New_Symbol"/><use width="11.42" height="11.42" transform="matrix(.2 0 0 .2 719.5 206.1)" xlink:href="#New_Symbol"/><use width="11.42" height="11.42" transform="matrix(.2 0 0 .2 749.5 290.4)" xlink:href="#New_Symbol"/><use width="11.42" height="11.42" transform="matrix(.2 0 0 .2 746 546.1)" xlink:href="#New_Symbol"/><use width="11.42" height="11.42" transform="matrix(.2 0 0 .2 362.7 298)" xlink:href="#New_Symbol"/><use width="11.42" height="11.42" transform="matrix(.2 0 0 .2 426.8 238.1)" xlink:href="#New_Symbol"/><use width="11.42" height="11.42" transform="matrix(.4 0 0 .4 623.4 884)" xlink:href="#New_Symbol"/><use width="11.42" height="11.42" transform="matrix(.4 0 0 .4 693.5 1015.8)" xlink:href="#New_Symbol"/><use width="11.42" height="11.42" transform="matrix(.4 0 0 .4 472.8 995.5)" xlink:href="#New_Symbol"/><use width="11.42" height="11.42" transform="matrix(.4 0 0 .4 638.8 911)" xlink:href="#New_Symbol"/><use width="11.42" height="11.42" transform="matrix(.2 0 0 .2 618.3 939.5)" xlink:href="#New_Symbol"/><use width="11.42" height="11.42" transform="matrix(.2 0 0 .2 608.3 930)" xlink:href="#New_Symbol"/><use width="11.42" height="11.42" transform="matrix(.2 0 0 .2 638.8 941.7)" xlink:href="#New_Symbol"/><use width="11.42" height="11.42" transform="matrix(.2 0 0 .2 350.1 184.1)" xlink:href="#New_Symbol"/><use width="11.42" height="11.42" transform="matrix(.3 0 0 .3 575.5 249.3)" xlink:href="#New_Symbol"/><use width="11.42" height="11.42" transform="matrix(.3 0 0 .3 509.4 165.3)" xlink:href="#New_Symbol"/><use width="11.42" height="11.42" transform="matrix(.2 0 0 .2 373.5 264.1)" xlink:href="#New_Symbol"/></g><g id="nieve-5" data-name="nieve"><use width="11.42" height="11.42" transform="matrix(.4 0 0 .4 158.3 554.4)" xlink:href="#New_Symbol"/><use width="11.42" height="11.42" transform="matrix(.4 0 0 .4 65.3 74.6)" xlink:href="#New_Symbol"/><use width="11.42" height="11.42" transform="matrix(.3 0 0 .3 172.7 80.3)" xlink:href="#New_Symbol"/><use width="11.42" height="11.42" transform="matrix(.4 0 0 .4 87.8 111.2)" xlink:href="#New_Symbol"/><use width="11.42" height="11.42" transform="matrix(.4 0 0 .4 280.8 49.3)" xlink:href="#New_Symbol"/><use width="11.42" height="11.42" transform="matrix(.2 0 0 .2 168.3 551.8)" xlink:href="#New_Symbol"/><use width="11.42" height="11.42" transform="matrix(.2 0 0 .2 54.4 158.3)" xlink:href="#New_Symbol"/><use width="11.42" height="11.42" transform="matrix(.2 0 0 .2 80.1 108.5)" xlink:href="#New_Symbol"/><use width="11.42" height="11.42" transform="matrix(.2 0 0 .2 169.3 88)" xlink:href="#New_Symbol"/><use width="11.42" height="11.42" transform="matrix(.2 0 0 .2 144.9 576.5)" xlink:href="#New_Symbol"/><use width="11.42" height="11.42" transform="matrix(.2 0 0 .2 192.2 562)" xlink:href="#New_Symbol"/><use width="11.42" height="11.42" transform="matrix(.2 0 0 .2 205.5 110.6)" xlink:href="#New_Symbol"/><use width="11.42" height="11.42" transform="matrix(.2 0 0 .2 233.6 62.5)" xlink:href="#New_Symbol"/><use width="11.42" height="11.42" transform="matrix(.2 0 0 .2 201.1 535.3)" xlink:href="#New_Symbol"/><use width="11.42" height="11.42" transform="matrix(.2 0 0 .2 147.5 88.1)" xlink:href="#New_Symbol"/><use width="11.42" height="11.42" transform="matrix(.2 0 0 .2 182 27.5)" xlink:href="#New_Symbol"/><use width="11.42" height="11.42" transform="matrix(.2 0 0 .2 24.5 28.7)" xlink:href="#New_Symbol"/><use width="11.42" height="11.42" transform="matrix(.3 0 0 .3 96.7 54.1)" xlink:href="#New_Symbol"/></g><g id="nieve-6" data-name="nieve"><use width="11.42" height="11.42" transform="matrix(-.4 0 0 -.4 118.8 680.1)" xlink:href="#New_Symbol"/><use width="11.42" height="11.42" transform="matrix(-.4 0 0 -.4 102.6 821)" xlink:href="#New_Symbol"/><use width="11.42" height="11.42" transform="matrix(-.4 0 0 -.4 80.1 784.4)" xlink:href="#New_Symbol"/><use width="11.42" height="11.42" transform="matrix(-.2 0 0 -.2 293.2 786.4)" xlink:href="#New_Symbol"/><use width="11.42" height="11.42" transform="matrix(-.2 0 0 -.2 81.9 655.7)" xlink:href="#New_Symbol"/><use width="11.42" height="11.42" transform="matrix(-.2 0 0 -.2 180.6 751.4)" xlink:href="#New_Symbol"/><use width="11.42" height="11.42" transform="matrix(-.2 0 0 -.2 87.8 787)" xlink:href="#New_Symbol"/><use width="11.42" height="11.42" transform="matrix(-.2 0 0 -.2 216.3 806.2)" xlink:href="#New_Symbol"/><use width="11.42" height="11.42" transform="matrix(-.2 0 0 -.2 81.9 1020.6)" xlink:href="#New_Symbol"/><use width="11.42" height="11.42" transform="matrix(-.2 0 0 -.2 173 789.1)" xlink:href="#New_Symbol"/><use width="11.42" height="11.42" transform="matrix(-.2 0 0 -.2 263.2 708.3)" xlink:href="#New_Symbol"/><use width="11.42" height="11.42" transform="matrix(-.2 0 0 -.2 269.2 776.1)" xlink:href="#New_Symbol"/><use width="11.42" height="11.42" transform="matrix(-.2 0 0 -.2 175.4 714.9)" xlink:href="#New_Symbol"/><use width="11.42" height="11.42" transform="matrix(-.3 0 0 -.3 278.2 866.4)" xlink:href="#New_Symbol"/><use width="11.42" height="11.42" transform="matrix(-.2 0 0 -.2 179.4 845.1)" xlink:href="#New_Symbol"/><use width="11.42" height="11.42" transform="matrix(-.2 0 0 -.2 260.4 802.8)" xlink:href="#New_Symbol"/><use width="11.42" height="11.42" transform="matrix(-.2 0 0 -.2 221 776.1)" xlink:href="#New_Symbol"/><use width="11.42" height="11.42" transform="matrix(-.2 0 0 -.2 143.4 866.9)" xlink:href="#New_Symbol"/><use width="11.42" height="11.42" transform="matrix(-.2 0 0 -.2 238.7 848.7)" xlink:href="#New_Symbol"/><use width="11.42" height="11.42" transform="matrix(-.2 0 0 -.2 282.7 815.3)" xlink:href="#New_Symbol"/><use width="11.42" height="11.42" transform="matrix(-.3 0 0 -.3 71.2 841.5)" xlink:href="#New_Symbol"/><use width="11.42" height="11.42" transform="matrix(-.3 0 0 -.3 306.5 845.6)" xlink:href="#New_Symbol"/><use width="11.42" height="11.42" transform="matrix(-.3 0 0 -.3 109.3 904)" xlink:href="#New_Symbol"/><use width="11.42" height="11.42" transform="matrix(-.3 0 0 -.3 251.8 981.5)" xlink:href="#New_Symbol"/><use width="11.42" height="11.42" transform="matrix(-.3 0 0 -.3 194.9 997.9)" xlink:href="#New_Symbol"/><use width="11.42" height="11.42" transform="matrix(-.2 0 0 -.2 234 918)" xlink:href="#New_Symbol"/><use width="11.42" height="11.42" transform="matrix(-.2 0 0 -.2 111.3 995.5)" xlink:href="#New_Symbol"/><use width="11.42" height="11.42" transform="matrix(-.2 0 0 -.2 256.4 930.4)" xlink:href="#New_Symbol"/><use width="11.42" height="11.42" transform="matrix(-.3 0 0 -.3 280.1 960.7)" xlink:href="#New_Symbol"/><use width="11.42" height="11.42" transform="matrix(-.3 0 0 -.3 158.4 979.8)" xlink:href="#New_Symbol"/><use width="11.42" height="11.42" transform="matrix(-.3 0 0 -.3 292.2 999.6)" xlink:href="#New_Symbol"/><use width="11.42" height="11.42" transform="matrix(-.2 0 0 -.2 205.9 774.9)" xlink:href="#New_Symbol"/></g><g id="nieve-7" data-name="nieve"><use width="11.42" height="11.42" transform="matrix(.4 0 0 .4 290.5 361.3)" xlink:href="#New_Symbol"/><use width="11.42" height="11.42" transform="matrix(.4 0 0 .4 226.4 569.9)" xlink:href="#New_Symbol"/><use width="11.42" height="11.42" transform="matrix(.4 0 0 .4 138.8 452.2)" xlink:href="#New_Symbol"/><use width="11.42" height="11.42" transform="matrix(.4 0 0 .4 268.9 419.4)" xlink:href="#New_Symbol"/><use width="11.42" height="11.42" transform="matrix(.3 0 0 .3 292.9 661.3)" xlink:href="#New_Symbol"/><use width="11.42" height="11.42" transform="matrix(.3 0 0 .3 138.1 415.9)" xlink:href="#New_Symbol"/><use width="11.42" height="11.42" transform="matrix(.4 0 0 .4 107.7 728.4)" xlink:href="#New_Symbol"/><use width="11.42" height="11.42" transform="matrix(.4 0 0 .4 180.8 434)" xlink:href="#New_Symbol"/><use width="11.42" height="11.42" transform="matrix(.4 0 0 .4 365 413.5)" xlink:href="#New_Symbol"/><use width="11.42" height="11.42" transform="matrix(.4 0 0 .4 270.1 302.1)" xlink:href="#New_Symbol"/><use width="11.42" height="11.42" transform="matrix(.4 0 0 .4 104 469.9)" xlink:href="#New_Symbol"/><use width="11.42" height="11.42" transform="matrix(.2 0 0 .2 107.7 586.5)" xlink:href="#New_Symbol"/><use width="11.42" height="11.42" transform="matrix(.2 0 0 .2 123.6 508.6)" xlink:href="#New_Symbol"/><use width="11.42" height="11.42" transform="matrix(.2 0 0 .2 258.1 944.1)" xlink:href="#New_Symbol"/><use width="11.42" height="11.42" transform="matrix(.2 0 0 .2 70.1 946.6)" xlink:href="#New_Symbol"/><use width="11.42" height="11.42" transform="matrix(.2 0 0 .2 43.3 587.7)" xlink:href="#New_Symbol"/><use width="11.42" height="11.42" transform="matrix(.2 0 0 .2 272.5 467)" xlink:href="#New_Symbol"/><use width="11.42" height="11.42" transform="matrix(.2 0 0 .2 173.2 493.4)" xlink:href="#New_Symbol"/><use width="11.42" height="11.42" transform="matrix(.2 0 0 .2 273.7 449)" xlink:href="#New_Symbol"/><use width="11.42" height="11.42" transform="matrix(.2 0 0 .2 80.9 547.3)" xlink:href="#New_Symbol"/><use width="11.42" height="11.42" transform="matrix(.2 0 0 .2 29.3 286.7)" xlink:href="#New_Symbol"/><use width="11.42" height="11.42" transform="matrix(.2 0 0 .2 273.7 614.9)" xlink:href="#New_Symbol"/><use width="11.42" height="11.42" transform="matrix(.2 0 0 .2 82.1 453.1)" xlink:href="#New_Symbol"/><use width="11.42" height="11.42" transform="matrix(.3 0 0 .3 336 477.9)" xlink:href="#New_Symbol"/><use width="11.42" height="11.42" transform="matrix(.2 0 0 .2 30.5 569.9)" xlink:href="#New_Symbol"/><use width="11.42" height="11.42" transform="matrix(.2 0 0 .2 255.8 518.2)" xlink:href="#New_Symbol"/><use width="11.42" height="11.42" transform="matrix(.2 0 0 .2 68.9 597.1)" xlink:href="#New_Symbol"/><use width="11.42" height="11.42" transform="matrix(.2 0 0 .2 234.8 637.7)" xlink:href="#New_Symbol"/><use width="11.42" height="11.42" transform="matrix(.2 0 0 .2 289.5 493.2)" xlink:href="#New_Symbol"/><use width="11.42" height="11.42" transform="matrix(.2 0 0 .2 185.3 716.2)" xlink:href="#New_Symbol"/><use width="11.42" height="11.42" transform="matrix(.2 0 0 .2 85.8 421.9)" xlink:href="#New_Symbol"/><use width="11.42" height="11.42" transform="matrix(.3 0 0 .3 229.2 397.3)" xlink:href="#New_Symbol"/><use width="11.42" height="11.42" transform="matrix(.2 0 0 .2 155.6 626.8)" xlink:href="#New_Symbol"/></g><g id="nieve-8" data-name="nieve"><use width="11.42" height="11.42" transform="matrix(.4 0 0 .4 101.2 213.8)" xlink:href="#New_Symbol"/><use width="11.42" height="11.42" transform="matrix(.4 0 0 .4 144.8 275.2)" xlink:href="#New_Symbol"/><use width="11.42" height="11.42" transform="matrix(.3 0 0 .3 60.3 207.7)" xlink:href="#New_Symbol"/><use width="11.42" height="11.42" transform="matrix(.3 0 0 .3 292.9 93.3)" xlink:href="#New_Symbol"/><use width="11.42" height="11.42" transform="matrix(.4 0 0 .4 184.4 146.6)" xlink:href="#New_Symbol"/><use width="11.42" height="11.42" transform="matrix(.4 0 0 .4 221.6 289.4)" xlink:href="#New_Symbol"/><use width="11.42" height="11.42" transform="matrix(.4 0 0 .4 77.7 154.6)" xlink:href="#New_Symbol"/><use width="11.42" height="11.42" transform="matrix(.4 0 0 .4 198.8 195.3)" xlink:href="#New_Symbol"/><use width="11.42" height="11.42" transform="matrix(.2 0 0 .2 123.9 346.4)" xlink:href="#New_Symbol"/><use width="11.42" height="11.42" transform="matrix(.2 0 0 .2 190.5 379.2)" xlink:href="#New_Symbol"/><use width="11.42" height="11.42" transform="matrix(.2 0 0 .2 216.5 344.8)" xlink:href="#New_Symbol"/><use width="11.42" height="11.42" transform="matrix(.2 0 0 .2 141.3 338.8)" xlink:href="#New_Symbol"/><use width="11.42" height="11.42" transform="matrix(.2 0 0 .2 150.1 387.9)" xlink:href="#New_Symbol"/><use width="11.42" height="11.42" transform="matrix(.2 0 0 .2 207.8 602)" xlink:href="#New_Symbol"/><use width="11.42" height="11.42" transform="matrix(.2 0 0 .2 256.9 286.7)" xlink:href="#New_Symbol"/><use width="11.42" height="11.42" transform="matrix(.2 0 0 .2 166.8 144.1)" xlink:href="#New_Symbol"/><use width="11.42" height="11.42" transform="matrix(.2 0 0 .2 126.2 208.3)" xlink:href="#New_Symbol"/><use width="11.42" height="11.42" transform="matrix(.2 0 0 .2 238.4 105.3)" xlink:href="#New_Symbol"/><use width="11.42" height="11.42" transform="matrix(.2 0 0 .2 156.7 181.6)" xlink:href="#New_Symbol"/><use width="11.42" height="11.42" transform="matrix(.2 0 0 .2 198.7 268.1)" xlink:href="#New_Symbol"/><use width="11.42" height="11.42" transform="matrix(.2 0 0 .2 270.1 248.1)" xlink:href="#New_Symbol"/><use width="11.42" height="11.42" transform="matrix(.2 0 0 .2 203 231.8)" xlink:href="#New_Symbol"/><use width="11.42" height="11.42" transform="matrix(.3 0 0 .3 184.8 409.4)" xlink:href="#New_Symbol"/><use width="11.42" height="11.42" transform="matrix(.2 0 0 .2 140.8 227.6)" xlink:href="#New_Symbol"/><use width="11.42" height="11.42" transform="matrix(.2 0 0 .2 182.5 305.4)" xlink:href="#New_Symbol"/><use width="11.42" height="11.42" transform="matrix(.2 0 0 .2 206.5 335.3)" xlink:href="#New_Symbol"/><use width="11.42" height="11.42" transform="matrix(.2 0 0 .2 78.3 328)" xlink:href="#New_Symbol"/><use width="11.42" height="11.42" transform="matrix(.2 0 0 .2 268.8 206.1)" xlink:href="#New_Symbol"/><use width="11.42" height="11.42" transform="matrix(.2 0 0 .2 298.8 290.4)" xlink:href="#New_Symbol"/><use width="11.42" height="11.42" transform="matrix(.2 0 0 .2 295.3 546.1)" xlink:href="#New_Symbol"/><use width="11.42" height="11.42" transform="matrix(.2 0 0 .2 172.8 406.9)" xlink:href="#New_Symbol"/><use width="11.42" height="11.42" transform="matrix(.4 0 0 .4 172.8 884)" xlink:href="#New_Symbol"/><use width="11.42" height="11.42" transform="matrix(.4 0 0 .4 242.8 1015.8)" xlink:href="#New_Symbol"/><use width="11.42" height="11.42" transform="matrix(.4 0 0 .4 22.1 995.5)" xlink:href="#New_Symbol"/><use width="11.42" height="11.42" transform="matrix(.4 0 0 .4 188.1 911)" xlink:href="#New_Symbol"/><use width="11.42" height="11.42" transform="matrix(.2 0 0 .2 167.7 939.5)" xlink:href="#New_Symbol"/><use width="11.42" height="11.42" transform="matrix(.2 0 0 .2 157.6 930)" xlink:href="#New_Symbol"/><use width="11.42" height="11.42" transform="matrix(.2 0 0 .2 188.1 941.7)" xlink:href="#New_Symbol"/><use width="11.42" height="11.42" transform="matrix(.2 0 0 .2 160.1 293)" xlink:href="#New_Symbol"/><use width="11.42" height="11.42" transform="matrix(.3 0 0 .3 124.8 249.3)" xlink:href="#New_Symbol"/><use width="11.42" height="11.42" transform="matrix(.3 0 0 .3 58.7 165.3)" xlink:href="#New_Symbol"/><use width="11.42" height="11.42" transform="matrix(.2 0 0 .2 183.6 373.1)" xlink:href="#New_Symbol"/></g><g id="nieve-9" data-name="nieve"><use width="11.42" height="11.42" transform="matrix(-.4 0 0 -.4 924.1 765.8)" xlink:href="#New_Symbol"/><use width="11.42" height="11.42" transform="matrix(-.4 0 0 -.4 1003.3 973.5)" xlink:href="#New_Symbol"/><use width="11.42" height="11.42" transform="matrix(-.3 0 0 -.3 895.9 967.8)" xlink:href="#New_Symbol"/><use width="11.42" height="11.42" transform="matrix(-.4 0 0 -.4 980.8 937)" xlink:href="#New_Symbol"/><use width="11.42" height="11.42" transform="matrix(-.4 0 0 -.4 787.8 998.9)" xlink:href="#New_Symbol"/><use width="11.42" height="11.42" transform="matrix(-.2 0 0 -.2 914.2 768.4)" xlink:href="#New_Symbol"/><use width="11.42" height="11.42" transform="matrix(-.2 0 0 -.2 1014.2 889.9)" xlink:href="#New_Symbol"/><use width="11.42" height="11.42" transform="matrix(-.2 0 0 -.2 988.5 939.6)" xlink:href="#New_Symbol"/><use width="11.42" height="11.42" transform="matrix(-.2 0 0 -.2 599.7 647.4)" xlink:href="#New_Symbol"/><use width="11.42" height="11.42" transform="matrix(-.2 0 0 -.2 899.3 960.1)" xlink:href="#New_Symbol"/><use width="11.42" height="11.42" transform="matrix(-.2 0 0 -.2 1030.7 941.6)" xlink:href="#New_Symbol"/><use width="11.42" height="11.42" transform="matrix(-.2 0 0 -.2 937.5 743.6)" xlink:href="#New_Symbol"/><use width="11.42" height="11.42" transform="matrix(-.2 0 0 -.2 890.2 758.2)" xlink:href="#New_Symbol"/><use width="11.42" height="11.42" transform="matrix(-.2 0 0 -.2 863.1 937.5)" xlink:href="#New_Symbol"/><use width="11.42" height="11.42" transform="matrix(-.2 0 0 -.2 835 985.6)" xlink:href="#New_Symbol"/><use width="11.42" height="11.42" transform="matrix(-.3 0 0 -.3 661.6 707.6)" xlink:href="#New_Symbol"/><use width="11.42" height="11.42" transform="matrix(-.2 0 0 -.2 881.4 784.9)" xlink:href="#New_Symbol"/><use width="11.42" height="11.42" transform="matrix(-.2 0 0 -.2 604.4 617.4)" xlink:href="#New_Symbol"/><use width="11.42" height="11.42" transform="matrix(-.2 0 0 -.2 921.1 960)" xlink:href="#New_Symbol"/><use width="11.42" height="11.42" transform="matrix(-.2 0 0 -.2 886.6 1020.6)" xlink:href="#New_Symbol"/><use width="11.42" height="11.42" transform="rotate(180 522 509.7) scale(.2)" xlink:href="#New_Symbol"/><use width="11.42" height="11.42" transform="matrix(-.2 0 0 -.2 622.1 689.9)" xlink:href="#New_Symbol"/><use width="11.42" height="11.42" transform="matrix(-.2 0 0 -.2 903.7 797.3)" xlink:href="#New_Symbol"/><use width="11.42" height="11.42" transform="matrix(-.3 0 0 -.3 971.9 994)" xlink:href="#New_Symbol"/><use width="11.42" height="11.42" transform="matrix(-.3 0 0 -.3 689.9 686.8)" xlink:href="#New_Symbol"/></g><g id="nieve-10" data-name="nieve"><use width="11.42" height="11.42" transform="matrix(.4 0 0 .4 949.8 368)" xlink:href="#New_Symbol"/><use width="11.42" height="11.42" transform="matrix(.4 0 0 .4 965.9 227.2)" xlink:href="#New_Symbol"/><use width="11.42" height="11.42" transform="matrix(.3 0 0 .3 446.8 361.1)" xlink:href="#New_Symbol"/><use width="11.42" height="11.42" transform="matrix(.3 0 0 .3 954.8 355.8)" xlink:href="#New_Symbol"/><use width="11.42" height="11.42" transform="matrix(.4 0 0 .4 988.5 263.7)" xlink:href="#New_Symbol"/><use width="11.42" height="11.42" transform="matrix(.4 0 0 .4 497.2 304.6)" xlink:href="#New_Symbol"/><use width="11.42" height="11.42" transform="matrix(.2 0 0 .2 775.4 261.8)" xlink:href="#New_Symbol"/><use width="11.42" height="11.42" transform="matrix(.2 0 0 .2 986.7 392.4)" xlink:href="#New_Symbol"/><use width="11.42" height="11.42" transform="matrix(.2 0 0 .2 887.9 296.7)" xlink:href="#New_Symbol"/><use width="11.42" height="11.42" transform="matrix(.2 0 0 .2 980.8 261.1)" xlink:href="#New_Symbol"/><use width="11.42" height="11.42" transform="matrix(.2 0 0 .2 852.3 241.9)" xlink:href="#New_Symbol"/><use width="11.42" height="11.42" transform="matrix(.2 0 0 .2 986.7 27.5)" xlink:href="#New_Symbol"/><use width="11.42" height="11.42" transform="matrix(.2 0 0 .2 895.6 259.1)" xlink:href="#New_Symbol"/><use width="11.42" height="11.42" transform="matrix(.2 0 0 .2 805.4 339.9)" xlink:href="#New_Symbol"/><use width="11.42" height="11.42" transform="matrix(.2 0 0 .2 799.4 272)" xlink:href="#New_Symbol"/><use width="11.42" height="11.42" transform="matrix(.2 0 0 .2 466.5 425.1)" xlink:href="#New_Symbol"/><use width="11.42" height="11.42" transform="matrix(.2 0 0 .2 450.1 317.9)" xlink:href="#New_Symbol"/><use width="11.42" height="11.42" transform="matrix(.3 0 0 .3 790.4 181.7)" xlink:href="#New_Symbol"/><use width="11.42" height="11.42" transform="matrix(.2 0 0 .2 889.2 203)" xlink:href="#New_Symbol"/><use width="11.42" height="11.42" transform="matrix(.2 0 0 .2 808.2 245.3)" xlink:href="#New_Symbol"/><use width="11.42" height="11.42" transform="matrix(.2 0 0 .2 847.6 272)" xlink:href="#New_Symbol"/><use width="11.42" height="11.42" transform="matrix(.2 0 0 .2 925.2 181.3)" xlink:href="#New_Symbol"/><use width="11.42" height="11.42" transform="matrix(.2 0 0 .2 829.9 199.4)" xlink:href="#New_Symbol"/><use width="11.42" height="11.42" transform="matrix(.2 0 0 .2 785.8 232.9)" xlink:href="#New_Symbol"/><use width="11.42" height="11.42" transform="matrix(.3 0 0 .3 997.4 206.6)" xlink:href="#New_Symbol"/><use width="11.42" height="11.42" transform="matrix(.3 0 0 .3 762.1 202.5)" xlink:href="#New_Symbol"/><use width="11.42" height="11.42" transform="matrix(.3 0 0 .3 959.2 144.1)" xlink:href="#New_Symbol"/><use width="11.42" height="11.42" transform="matrix(.3 0 0 .3 861.9 393.3)" xlink:href="#New_Symbol"/><use width="11.42" height="11.42" transform="matrix(.3 0 0 .3 915 310.5)" xlink:href="#New_Symbol"/><use width="11.42" height="11.42" transform="matrix(.3 0 0 .3 816.8 66.6)" xlink:href="#New_Symbol"/><use width="11.42" height="11.42" transform="matrix(.3 0 0 .3 873.7 50.2)" xlink:href="#New_Symbol"/><use width="11.42" height="11.42" transform="matrix(.2 0 0 .2 834.6 130.2)" xlink:href="#New_Symbol"/><use width="11.42" height="11.42" transform="matrix(.2 0 0 .2 957.3 52.6)" xlink:href="#New_Symbol"/><use width="11.42" height="11.42" transform="matrix(.2 0 0 .2 812.2 117.8)" xlink:href="#New_Symbol"/><use width="11.42" height="11.42" transform="matrix(.3 0 0 .3 788.5 87.4)" xlink:href="#New_Symbol"/><use width="11.42" height="11.42" transform="matrix(.3 0 0 .3 910.1 68.3)" xlink:href="#New_Symbol"/><use width="11.42" height="11.42" transform="matrix(.3 0 0 .3 776.4 48.5)" xlink:href="#New_Symbol"/><use width="11.42" height="11.42" transform="matrix(.2 0 0 .2 862.7 273.2)" xlink:href="#New_Symbol"/></g><g id="nieve-11" data-name="nieve"><use width="11.42" height="11.42" transform="matrix(-.4 0 0 -.4 778.1 686.9)" xlink:href="#New_Symbol"/><use width="11.42" height="11.42" transform="matrix(-.4 0 0 -.4 842.2 478.2)" xlink:href="#New_Symbol"/><use width="11.42" height="11.42" transform="matrix(-.3 0 0 -.3 775.7 386.8)" xlink:href="#New_Symbol"/><use width="11.42" height="11.42" transform="matrix(-.4 0 0 -.4 907.8 397.4)" xlink:href="#New_Symbol"/><use width="11.42" height="11.42" transform="matrix(-.4 0 0 -.4 887.8 614.1)" xlink:href="#New_Symbol"/><use width="11.42" height="11.42" transform="matrix(-.4 0 0 -.4 798.5 746)" xlink:href="#New_Symbol"/><use width="11.42" height="11.42" transform="matrix(-.4 0 0 -.4 964.5 578.2)" xlink:href="#New_Symbol"/><use width="11.42" height="11.42" transform="matrix(-.2 0 0 -.2 525.1 365.3)" xlink:href="#New_Symbol"/><use width="11.42" height="11.42" transform="matrix(-.2 0 0 -.2 606.6 311.7)" xlink:href="#New_Symbol"/><use width="11.42" height="11.42" transform="matrix(-.2 0 0 -.2 960.9 461.6)" xlink:href="#New_Symbol"/><use width="11.42" height="11.42" transform="matrix(-.2 0 0 -.2 1020.8 305.7)" xlink:href="#New_Symbol"/><use width="11.42" height="11.42" transform="matrix(-.2 0 0 -.2 458.5 332.4)" xlink:href="#New_Symbol"/><use width="11.42" height="11.42" transform="matrix(-.2 0 0 -.2 945 539.5)" xlink:href="#New_Symbol"/><use width="11.42" height="11.42" transform="matrix(-.2 0 0 -.2 810.5 104)" xlink:href="#New_Symbol"/><use width="11.42" height="11.42" transform="matrix(-.2 0 0 -.2 998.5 101.5)" xlink:href="#New_Symbol"/><use width="11.42" height="11.42" transform="matrix(-.2 0 0 -.2 1025.3 460.4)" xlink:href="#New_Symbol"/><use width="11.42" height="11.42" transform="matrix(-.2 0 0 -.2 895.3 554.8)" xlink:href="#New_Symbol"/><use width="11.42" height="11.42" transform="matrix(-.2 0 0 -.2 794.9 599.1)" xlink:href="#New_Symbol"/><use width="11.42" height="11.42" transform="matrix(-.2 0 0 -.2 987.7 500.8)" xlink:href="#New_Symbol"/><use width="11.42" height="11.42" transform="matrix(-.2 0 0 -.2 1039.3 761.4)" xlink:href="#New_Symbol"/><use width="11.42" height="11.42" transform="matrix(-.2 0 0 -.2 794.9 433.2)" xlink:href="#New_Symbol"/><use width="11.42" height="11.42" transform="matrix(-.2 0 0 -.2 986.5 595)" xlink:href="#New_Symbol"/><use width="11.42" height="11.42" transform="matrix(-.2 0 0 -.2 1038 478.2)" xlink:href="#New_Symbol"/><use width="11.42" height="11.42" transform="matrix(-.2 0 0 -.2 640.3 395.1)" xlink:href="#New_Symbol"/><use width="11.42" height="11.42" transform="matrix(-.2 0 0 -.2 999.7 451)" xlink:href="#New_Symbol"/><use width="11.42" height="11.42" transform="matrix(-.2 0 0 -.2 833.7 410.4)" xlink:href="#New_Symbol"/><use width="11.42" height="11.42" transform="matrix(-.2 0 0 -.2 606.6 420)" xlink:href="#New_Symbol"/><use width="11.42" height="11.42" transform="matrix(-.2 0 0 -.2 456.6 423.8)" xlink:href="#New_Symbol"/><use width="11.42" height="11.42" transform="matrix(-.2 0 0 -.2 982.8 626.2)" xlink:href="#New_Symbol"/><use width="11.42" height="11.42" transform="matrix(-.2 0 0 -.2 658.9 328.4)" xlink:href="#New_Symbol"/></g><g id="nieve-12" data-name="nieve"><use width="11.42" height="11.42" transform="matrix(-.4 0 0 -.4 967.4 834.3)" xlink:href="#New_Symbol"/><use width="11.42" height="11.42" transform="matrix(-.4 0 0 -.4 904.9 711.3)" xlink:href="#New_Symbol"/><use width="11.42" height="11.42" transform="matrix(-.3 0 0 -.3 1008.3 840.5)" xlink:href="#New_Symbol"/><use width="11.42" height="11.42" transform="matrix(-.3 0 0 -.3 775.7 954.8)" xlink:href="#New_Symbol"/><use width="11.42" height="11.42" transform="matrix(-.4 0 0 -.4 884.1 901.5)" xlink:href="#New_Symbol"/><use width="11.42" height="11.42" transform="matrix(-.4 0 0 -.4 990.9 893.5)" xlink:href="#New_Symbol"/><use width="11.42" height="11.42" transform="matrix(-.4 0 0 -.4 869.8 852.9)" xlink:href="#New_Symbol"/><use width="11.42" height="11.42" transform="matrix(-.2 0 0 -.2 925.8 640.2)" xlink:href="#New_Symbol"/><use width="11.42" height="11.42" transform="matrix(-.2 0 0 -.2 908.4 647.7)" xlink:href="#New_Symbol"/><use width="11.42" height="11.42" transform="matrix(-.2 0 0 -.2 874.6 718.1)" xlink:href="#New_Symbol"/><use width="11.42" height="11.42" transform="matrix(-.2 0 0 -.2 811.7 761.4)" xlink:href="#New_Symbol"/><use width="11.42" height="11.42" transform="matrix(-.2 0 0 -.2 901.8 904)" xlink:href="#New_Symbol"/><use width="11.42" height="11.42" transform="matrix(-.2 0 0 -.2 942.4 839.9)" xlink:href="#New_Symbol"/><use width="11.42" height="11.42" transform="matrix(-.2 0 0 -.2 830.1 942.8)" xlink:href="#New_Symbol"/><use width="11.42" height="11.42" transform="matrix(-.2 0 0 -.2 911.8 866.5)" xlink:href="#New_Symbol"/><use width="11.42" height="11.42" transform="matrix(-.2 0 0 -.2 869.9 780)" xlink:href="#New_Symbol"/><use width="11.42" height="11.42" transform="matrix(-.2 0 0 -.2 798.5 800)" xlink:href="#New_Symbol"/><use width="11.42" height="11.42" transform="matrix(-.2 0 0 -.2 865.6 816.3)" xlink:href="#New_Symbol"/><use width="11.42" height="11.42" transform="matrix(-.2 0 0 -.2 927.8 820.6)" xlink:href="#New_Symbol"/><use width="11.42" height="11.42" transform="matrix(-.2 0 0 -.2 1002 789.3)" xlink:href="#New_Symbol"/><use width="11.42" height="11.42" transform="matrix(-.2 0 0 -.2 867.2 681.1)" xlink:href="#New_Symbol"/><use width="11.42" height="11.42" transform="matrix(-.2 0 0 -.2 843.2 651.2)" xlink:href="#New_Symbol"/><use width="11.42" height="11.42" transform="matrix(-.2 0 0 -.2 990.3 720.1)" xlink:href="#New_Symbol"/><use width="11.42" height="11.42" transform="matrix(-.2 0 0 -.2 799.7 842)" xlink:href="#New_Symbol"/><use width="11.42" height="11.42" transform="matrix(-.2 0 0 -.2 769.8 757.8)" xlink:href="#New_Symbol"/><use width="11.42" height="11.42" transform="matrix(-.2 0 0 -.2 773.3 502)" xlink:href="#New_Symbol"/><use width="11.42" height="11.42" transform="matrix(-.4 0 0 -.4 895.8 164.1)" xlink:href="#New_Symbol"/><use width="11.42" height="11.42" transform="matrix(-.4 0 0 -.4 825.7 32.3)" xlink:href="#New_Symbol"/><use width="11.42" height="11.42" transform="matrix(-.4 0 0 -.4 880.5 137.1)" xlink:href="#New_Symbol"/><use width="11.42" height="11.42" transform="matrix(-.2 0 0 -.2 900.9 108.7)" xlink:href="#New_Symbol"/><use width="11.42" height="11.42" transform="matrix(-.2 0 0 -.2 911 118.2)" xlink:href="#New_Symbol"/><use width="11.42" height="11.42" transform="matrix(-.2 0 0 -.2 880.5 106.4)" xlink:href="#New_Symbol"/><use width="11.42" height="11.42" transform="matrix(-.2 0 0 -.2 889.5 693.5)" xlink:href="#New_Symbol"/><use width="11.42" height="11.42" transform="matrix(-.3 0 0 -.3 943.8 798.8)" xlink:href="#New_Symbol"/><use width="11.42" height="11.42" transform="matrix(-.3 0 0 -.3 1009.9 882.9)" xlink:href="#New_Symbol"/></g></g><path d="M0 0h1065.6v1065.62H0z" class="cls-1"/></symbol><symbol id="star" data-name="star" viewBox="0 0 34.12 34.12"><ellipse cx="17.06" cy="17.06" class="cls-13" rx="17.06" ry="1.19"/><ellipse cx="17.06" cy="17.06" class="cls-14" rx="1.19" ry="17.06"/><ellipse cx="17.06" cy="17.06" class="cls-15" rx=".56" ry="7.98" transform="rotate(-45 17.1 17.1)"/><ellipse cx="17.06" cy="17.06" class="cls-16" rx="7.98" ry=".56" transform="rotate(-45 17.1 17.1)"/></symbol></defs><path id="Background" d="M-4.46-2.8h606.9v605.92H-4.46z" class="cls-17"/><g id="tree" class="cls-18"><path d="M-6.75-6.75h612.9v612.9H-6.75z" class="cls-19"/><use id="pinguin-4" width="1065.61" height="1065.62" data-name="pinguin" transform="translate(-266.3 -332.1)" xlink:href="#pinguin"/><use width="34.12" height="34.12" transform="matrix(4.2 0 0 4.2 95.8 104.2)" xlink:href="#star"/></g></svg>
