<svg xmlns="http://www.w3.org/2000/svg" xmlns:xlink="http://www.w3.org/1999/xlink" viewBox="0 0 600 600"><defs><style>.cls-1{fill:none;}.cls-2{fill:#fff;}.cls-3{fill:#a2d9f3;}.cls-11,.cls-3,.cls-4,.cls-5,.cls-6,.cls-7,.cls-8,.cls-9{fill-rule:evenodd;}.cls-4{fill:#f5f5f5;}.cls-10,.cls-5{fill:#258ac9;}.cls-6{fill:#3fa7de;}.cls-7{fill:#2a96a6;}.cls-8{fill:#63b34b;}.cls-9{fill:#6ab978;}.cls-11{fill:#4bbabe;}.cls-12,.cls-13,.cls-14,.cls-15{mix-blend-mode:screen;}.cls-12{fill:url(#Unbenannter_Verlauf_16);}.cls-13{fill:url(#Unbenannter_Verlauf_16-2);}.cls-14{fill:url(#Unbenannter_Verlauf_16-3);}.cls-15{fill:url(#Unbenannter_Verlauf_16-4);}.cls-16{fill:#2c97a6;stroke:#fff;}.cls-16,.cls-18{stroke-miterlimit:10;}.cls-17{clip-path:url(#clip-path);}.cls-18{fill:#1e5a96;stroke:#000;}</style><radialGradient id="Unbenannter_Verlauf_16" cx="17.06" cy="-109400.73" r="17.06" gradientTransform="translate(0 7664.17) scale(1 0.07)" gradientUnits="userSpaceOnUse"><stop offset="0" stop-color="#fff"/><stop offset="0.03" stop-color="#fff" stop-opacity="0.9"/><stop offset="0.1" stop-color="#fff" stop-opacity="0.71"/><stop offset="0.17" stop-color="#fff" stop-opacity="0.54"/><stop offset="0.24" stop-color="#fff" stop-opacity="0.4"/><stop offset="0.32" stop-color="#fff" stop-opacity="0.27"/><stop offset="0.41" stop-color="#fff" stop-opacity="0.17"/><stop offset="0.51" stop-color="#fff" stop-opacity="0.1"/><stop offset="0.62" stop-color="#fff" stop-opacity="0.04"/><stop offset="0.75" stop-color="#fff" stop-opacity="0.01"/><stop offset="1" stop-color="#fff" stop-opacity="0"/></radialGradient><radialGradient id="Unbenannter_Verlauf_16-2" cx="7.67" cy="125744.3" r="17.06" gradientTransform="translate(8806.59 9.39) rotate(90) scale(1 0.07)" xlink:href="#Unbenannter_Verlauf_16"/><radialGradient id="Unbenannter_Verlauf_16-3" cx="-3391.81" cy="8148.38" r="7.98" gradientTransform="matrix(0, 1, -0.07, 0, 586.31, 3408.84)" xlink:href="#Unbenannter_Verlauf_16"/><radialGradient id="Unbenannter_Verlauf_16-4" cx="8224.12" cy="174606.12" r="7.98" gradientTransform="translate(8241.16 12215.38) rotate(180) scale(1 0.07)" xlink:href="#Unbenannter_Verlauf_16"/><clipPath id="clip-path"><circle class="cls-1" cx="299.84" cy="299.51" r="294.87"/></clipPath><symbol id="New_Symbol" data-name="New Symbol" viewBox="0 0 11.43 11.43"><circle class="cls-2" cx="5.71" cy="5.71" r="5.71"/></symbol><symbol id="baum" data-name="baum" viewBox="0 0 626.46 626.46"><polyline class="cls-1" points="626.46 626.46 0 626.46 0 0 626.46 0"/><polygon class="cls-3" points="264.12 475.73 327.22 538.84 264.12 538.84 264.12 475.73"/><polygon class="cls-4" points="264.12 538.84 174.87 538.84 264.12 449.59 264.12 538.84"/><polygon class="cls-4" points="371.85 494.22 416.47 538.84 327.22 538.84 282.6 494.22 371.85 494.22"/><g id="schnee"><g id="nieve"><use width="11.42" height="11.42" transform="translate(185.46 65.71) scale(0.25)" xlink:href="#New_Symbol"/><use width="11.42" height="11.42" transform="translate(303.33 43.86) scale(0.25)" xlink:href="#New_Symbol"/><use width="11.42" height="11.42" transform="translate(366.45 47.21) scale(0.18)" xlink:href="#New_Symbol"/><use width="11.42" height="11.42" transform="translate(316.58 65.35) scale(0.25)" xlink:href="#New_Symbol"/><use width="11.42" height="11.42" transform="translate(430 28.96) scale(0.25)" xlink:href="#New_Symbol"/><use width="11.42" height="11.42" transform="translate(191.31 64.19) scale(0.13)" xlink:href="#New_Symbol"/><use width="11.42" height="11.42" transform="translate(296.91 93.03) scale(0.13)" xlink:href="#New_Symbol"/><use width="11.42" height="11.42" transform="translate(257.47 84.72) scale(0.13)" xlink:href="#New_Symbol"/><use width="11.42" height="11.42" transform="translate(312.05 63.8) scale(0.13)" xlink:href="#New_Symbol"/><use width="11.42" height="11.42" transform="translate(236.51 52.53) scale(0.13)" xlink:href="#New_Symbol"/><use width="11.42" height="11.42" transform="translate(364.46 51.75) scale(0.13)" xlink:href="#New_Symbol"/><use width="11.42" height="11.42" transform="translate(261.99 62.61) scale(0.13)" xlink:href="#New_Symbol"/><use width="11.42" height="11.42" transform="translate(177.58 78.74) scale(0.13)" xlink:href="#New_Symbol"/><use width="11.42" height="11.42" transform="translate(205.4 70.2) scale(0.13)" xlink:href="#New_Symbol"/><use width="11.42" height="11.42" transform="translate(385.77 65) scale(0.13)" xlink:href="#New_Symbol"/><use width="11.42" height="11.42" transform="translate(402.3 36.74) scale(0.13)" xlink:href="#New_Symbol"/><use width="11.42" height="11.42" transform="translate(200.12 17.12) scale(0.21)" xlink:href="#New_Symbol"/><use width="11.42" height="11.42" transform="translate(258.19 29.66) scale(0.13)" xlink:href="#New_Symbol"/><use width="11.42" height="11.42" transform="translate(210.59 54.51) scale(0.13)" xlink:href="#New_Symbol"/><use width="11.42" height="11.42" transform="translate(233.73 70.2) scale(0.13)" xlink:href="#New_Symbol"/><use width="11.42" height="11.42" transform="translate(351.68 51.82) scale(0.13)" xlink:href="#New_Symbol"/><use width="11.42" height="11.42" transform="translate(371.96 16.17) scale(0.13)" xlink:href="#New_Symbol"/><use width="11.42" height="11.42" transform="translate(279.37 16.88) scale(0.13)" xlink:href="#New_Symbol"/><use width="11.42" height="11.42" transform="translate(223.36 27.53) scale(0.13)" xlink:href="#New_Symbol"/><use width="11.42" height="11.42" transform="translate(197.45 47.22) scale(0.13)" xlink:href="#New_Symbol"/><use width="11.42" height="11.42" transform="translate(321.79 31.8) scale(0.18)" xlink:href="#New_Symbol"/><use width="11.42" height="11.42" transform="translate(183.48 29.38) scale(0.18)" xlink:href="#New_Symbol"/><use width="11.42" height="11.42" transform="translate(242.63 70.92) scale(0.13)" xlink:href="#New_Symbol"/></g><g id="nieve-2" data-name="nieve"><use width="11.42" height="11.42" transform="translate(334.81 399.84) rotate(180) scale(0.25)" xlink:href="#New_Symbol"/><use width="11.42" height="11.42" transform="translate(325.29 482.62) rotate(180) scale(0.25)" xlink:href="#New_Symbol"/><use width="11.42" height="11.42" transform="translate(228.25 464.36) rotate(180) scale(0.18)" xlink:href="#New_Symbol"/><use width="11.42" height="11.42" transform="translate(180.07 560.01) rotate(180) scale(0.18)" xlink:href="#New_Symbol"/><use width="11.42" height="11.42" transform="translate(312.04 461.14) rotate(180) scale(0.25)" xlink:href="#New_Symbol"/><use width="11.42" height="11.42" transform="translate(198.62 497.53) rotate(180) scale(0.25)" xlink:href="#New_Symbol"/><use width="11.42" height="11.42" transform="translate(437.31 462.29) rotate(180) scale(0.13)" xlink:href="#New_Symbol"/><use width="11.42" height="11.42" transform="translate(313.1 385.46) rotate(180) scale(0.13)" xlink:href="#New_Symbol"/><use width="11.42" height="11.42" transform="translate(371.15 441.76) rotate(180) scale(0.13)" xlink:href="#New_Symbol"/><use width="11.42" height="11.42" transform="translate(316.57 462.69) rotate(180) scale(0.13)" xlink:href="#New_Symbol"/><use width="11.42" height="11.42" transform="translate(392.11 473.95) rotate(180) scale(0.13)" xlink:href="#New_Symbol"/><use width="11.42" height="11.42" transform="translate(313.1 600) rotate(180) scale(0.13)" xlink:href="#New_Symbol"/><use width="11.42" height="11.42" transform="translate(238 439.94) rotate(180) scale(0.13)" xlink:href="#New_Symbol"/><use width="11.42" height="11.42" transform="translate(366.63 463.87) rotate(180) scale(0.13)" xlink:href="#New_Symbol"/><use width="11.42" height="11.42" transform="translate(419.69 416.37) rotate(180) scale(0.13)" xlink:href="#New_Symbol"/><use width="11.42" height="11.42" transform="translate(423.22 456.28) rotate(180) scale(0.13)" xlink:href="#New_Symbol"/><use width="11.42" height="11.42" transform="translate(216.69 426.69) rotate(180) scale(0.13)" xlink:href="#New_Symbol"/><use width="11.42" height="11.42" transform="translate(226.32 489.74) rotate(180) scale(0.13)" xlink:href="#New_Symbol"/><use width="11.42" height="11.42" transform="translate(428.5 509.36) rotate(180) scale(0.21)" xlink:href="#New_Symbol"/><use width="11.42" height="11.42" transform="translate(370.43 496.82) rotate(180) scale(0.13)" xlink:href="#New_Symbol"/><use width="11.42" height="11.42" transform="translate(418.03 471.98) rotate(180) scale(0.13)" xlink:href="#New_Symbol"/><use width="11.42" height="11.42" transform="translate(394.89 456.28) rotate(180) scale(0.13)" xlink:href="#New_Symbol"/><use width="11.42" height="11.42" transform="translate(272.24 457.15) rotate(180) scale(0.13)" xlink:href="#New_Symbol"/><use width="11.42" height="11.42" transform="translate(256.66 510.32) rotate(180) scale(0.13)" xlink:href="#New_Symbol"/><use width="11.42" height="11.42" transform="translate(349.25 509.6) rotate(180) scale(0.13)" xlink:href="#New_Symbol"/><use width="11.42" height="11.42" transform="translate(405.26 498.96) rotate(180) scale(0.13)" xlink:href="#New_Symbol"/><use width="11.42" height="11.42" transform="translate(431.17 479.27) rotate(180) scale(0.13)" xlink:href="#New_Symbol"/><use width="11.42" height="11.42" transform="translate(306.83 494.69) rotate(180) scale(0.18)" xlink:href="#New_Symbol"/><use width="11.42" height="11.42" transform="translate(445.14 497.11) rotate(180) scale(0.18)" xlink:href="#New_Symbol"/><use width="11.42" height="11.42" transform="translate(329.23 531.47) rotate(180) scale(0.18)" xlink:href="#New_Symbol"/><use width="11.42" height="11.42" transform="translate(234.73 537.97) rotate(180) scale(0.18)" xlink:href="#New_Symbol"/><use width="11.42" height="11.42" transform="translate(203.49 586.65) rotate(180) scale(0.18)" xlink:href="#New_Symbol"/><use width="11.42" height="11.42" transform="translate(269.67 491.65) rotate(180) scale(0.18)" xlink:href="#New_Symbol"/><use width="11.42" height="11.42" transform="translate(413 577.03) rotate(180) scale(0.21)" xlink:href="#New_Symbol"/><use width="11.42" height="11.42" transform="translate(379.54 586.65) rotate(180) scale(0.21)" xlink:href="#New_Symbol"/><use width="11.42" height="11.42" transform="translate(402.53 539.65) rotate(180) scale(0.13)" xlink:href="#New_Symbol"/><use width="11.42" height="11.42" transform="translate(330.38 585.23) rotate(180) scale(0.13)" xlink:href="#New_Symbol"/><use width="11.42" height="11.42" transform="translate(415.67 546.94) rotate(180) scale(0.13)" xlink:href="#New_Symbol"/><use width="11.42" height="11.42" transform="translate(429.64 564.78) rotate(180) scale(0.18)" xlink:href="#New_Symbol"/><use width="11.42" height="11.42" transform="translate(358.1 575.99) rotate(180) scale(0.18)" xlink:href="#New_Symbol"/><use width="11.42" height="11.42" transform="translate(436.73 587.65) rotate(180) scale(0.18)" xlink:href="#New_Symbol"/><use width="11.42" height="11.42" transform="translate(385.99 455.57) rotate(180) scale(0.13)" xlink:href="#New_Symbol"/></g><g id="nieve-3" data-name="nieve"><use width="11.42" height="11.42" transform="translate(435.73 212.38) scale(0.25)" xlink:href="#New_Symbol"/><use width="11.42" height="11.42" transform="translate(398.03 335.02) scale(0.25)" xlink:href="#New_Symbol"/><use width="11.42" height="11.42" transform="translate(193.26 201.76) scale(0.25)" xlink:href="#New_Symbol"/><use width="11.42" height="11.42" transform="translate(223.64 277.69) scale(0.25)" xlink:href="#New_Symbol"/><use width="11.42" height="11.42" transform="translate(437.15 388.76) scale(0.18)" xlink:href="#New_Symbol"/><use width="11.42" height="11.42" transform="translate(192.83 180.43) scale(0.18)" xlink:href="#New_Symbol"/><use width="11.42" height="11.42" transform="translate(252.35 407.91) scale(0.25)" xlink:href="#New_Symbol"/><use width="11.42" height="11.42" transform="translate(207.75 535.55) scale(0.25)" xlink:href="#New_Symbol"/><use width="11.42" height="11.42" transform="translate(371.25 255.15) scale(0.25)" xlink:href="#New_Symbol"/><use width="11.42" height="11.42" transform="translate(271.52 287.91) scale(0.25)" xlink:href="#New_Symbol"/><use width="11.42" height="11.42" transform="translate(423.72 177.59) scale(0.25)" xlink:href="#New_Symbol"/><use width="11.42" height="11.42" transform="translate(326.11 276.27) scale(0.25)" xlink:href="#New_Symbol"/><use width="11.42" height="11.42" transform="translate(182.24 461.88) scale(0.13)" xlink:href="#New_Symbol"/><use width="11.42" height="11.42" transform="translate(235.8 384.74) scale(0.13)" xlink:href="#New_Symbol"/><use width="11.42" height="11.42" transform="translate(328.23 344.78) scale(0.13)" xlink:href="#New_Symbol"/><use width="11.42" height="11.42" transform="translate(264.38 428.2) scale(0.13)" xlink:href="#New_Symbol"/><use width="11.42" height="11.42" transform="translate(221.4 481.2) scale(0.13)" xlink:href="#New_Symbol"/><use width="11.42" height="11.42" transform="translate(337.62 298.99) scale(0.13)" xlink:href="#New_Symbol"/><use width="11.42" height="11.42" transform="translate(256.76 304.96) scale(0.13)" xlink:href="#New_Symbol"/><use width="11.42" height="11.42" transform="translate(416.7 555.04) scale(0.13)" xlink:href="#New_Symbol"/><use width="11.42" height="11.42" transform="translate(306.17 556.47) scale(0.13)" xlink:href="#New_Symbol"/><use width="11.42" height="11.42" transform="translate(290.43 345.49) scale(0.13)" xlink:href="#New_Symbol"/><use width="11.42" height="11.42" transform="translate(225.77 305.68) scale(0.13)" xlink:href="#New_Symbol"/><use width="11.42" height="11.42" transform="translate(366.8 290.03) scale(0.13)" xlink:href="#New_Symbol"/><use width="11.42" height="11.42" transform="translate(425.84 263.94) scale(0.13)" xlink:href="#New_Symbol"/><use width="11.42" height="11.42" transform="translate(312.51 321.77) scale(0.13)" xlink:href="#New_Symbol"/><use width="11.42" height="11.42" transform="translate(282.19 168.56) scale(0.13)" xlink:href="#New_Symbol"/><use width="11.42" height="11.42" transform="translate(425.84 361.51) scale(0.13)" xlink:href="#New_Symbol"/><use width="11.42" height="11.42" transform="translate(313.23 266.37) scale(0.13)" xlink:href="#New_Symbol"/><use width="11.42" height="11.42" transform="translate(234.61 350.58) scale(0.21)" xlink:href="#New_Symbol"/><use width="11.42" height="11.42" transform="translate(282.9 335.02) scale(0.13)" xlink:href="#New_Symbol"/><use width="11.42" height="11.42" transform="translate(258.19 337.16) scale(0.13)" xlink:href="#New_Symbol"/><use width="11.42" height="11.42" transform="translate(215.98 335.73) scale(0.13)" xlink:href="#New_Symbol"/><use width="11.42" height="11.42" transform="translate(305.45 351.05) scale(0.13)" xlink:href="#New_Symbol"/><use width="11.42" height="11.42" transform="translate(403.01 374.91) scale(0.13)" xlink:href="#New_Symbol"/><use width="11.42" height="11.42" transform="translate(235.8 321.05) scale(0.13)" xlink:href="#New_Symbol"/><use width="11.42" height="11.42" transform="translate(250.49 265.65) scale(0.13)" xlink:href="#New_Symbol"/><use width="11.42" height="11.42" transform="translate(222.52 427.48) scale(0.13)" xlink:href="#New_Symbol"/><use width="11.42" height="11.42" transform="translate(315.41 248.06) scale(0.13)" xlink:href="#New_Symbol"/><use width="11.42" height="11.42" transform="translate(200.31 264.65) scale(0.18)" xlink:href="#New_Symbol"/><use width="11.42" height="11.42" transform="translate(205.08 374.91) scale(0.13)" xlink:href="#New_Symbol"/></g><g id="nieve-4" data-name="nieve"><use width="11.42" height="11.42" transform="translate(324.43 125.69) scale(0.25)" xlink:href="#New_Symbol"/><use width="11.42" height="11.42" transform="translate(196.74 97.73) scale(0.25)" xlink:href="#New_Symbol"/><use width="11.42" height="11.42" transform="translate(249.51 168.57) scale(0.25)" xlink:href="#New_Symbol"/><use width="11.42" height="11.42" transform="translate(300.41 122.08) scale(0.18)" xlink:href="#New_Symbol"/><use width="11.42" height="11.42" transform="translate(437.15 54.88) scale(0.18)" xlink:href="#New_Symbol"/><use width="11.42" height="11.42" transform="translate(373.38 86.18) scale(0.25)" xlink:href="#New_Symbol"/><use width="11.42" height="11.42" transform="translate(241.92 106.07) scale(0.25)" xlink:href="#New_Symbol"/><use width="11.42" height="11.42" transform="translate(310.63 90.91) scale(0.25)" xlink:href="#New_Symbol"/><use width="11.42" height="11.42" transform="translate(250.93 121.9) scale(0.25)" xlink:href="#New_Symbol"/><use width="11.42" height="11.42" transform="translate(381.79 114.79) scale(0.25)" xlink:href="#New_Symbol"/><use width="11.42" height="11.42" transform="translate(184.48 139.57) scale(0.13)" xlink:href="#New_Symbol"/><use width="11.42" height="11.42" transform="translate(265.81 156.71) scale(0.13)" xlink:href="#New_Symbol"/><use width="11.42" height="11.42" transform="translate(267.24 150.01) scale(0.13)" xlink:href="#New_Symbol"/><use width="11.42" height="11.42" transform="translate(223.63 158.89) scale(0.13)" xlink:href="#New_Symbol"/><use width="11.42" height="11.42" transform="translate(272.94 115.49) scale(0.13)" xlink:href="#New_Symbol"/><use width="11.42" height="11.42" transform="translate(238.93 138.65) scale(0.13)" xlink:href="#New_Symbol"/><use width="11.42" height="11.42" transform="translate(194.68 135.13) scale(0.13)" xlink:href="#New_Symbol"/><use width="11.42" height="11.42" transform="translate(199.88 164) scale(0.13)" xlink:href="#New_Symbol"/><use width="11.42" height="11.42" transform="translate(214.55 93.75) scale(0.13)" xlink:href="#New_Symbol"/><use width="11.42" height="11.42" transform="translate(415.99 168.56) scale(0.13)" xlink:href="#New_Symbol"/><use width="11.42" height="11.42" transform="translate(363.03 84.72) scale(0.13)" xlink:href="#New_Symbol"/><use width="11.42" height="11.42" transform="translate(339.16 122.43) scale(0.13)" xlink:href="#New_Symbol"/><use width="11.42" height="11.42" transform="translate(405.12 61.9) scale(0.13)" xlink:href="#New_Symbol"/><use width="11.42" height="11.42" transform="translate(357.1 106.77) scale(0.13)" xlink:href="#New_Symbol"/><use width="11.42" height="11.42" transform="translate(381.78 157.63) scale(0.13)" xlink:href="#New_Symbol"/><use width="11.42" height="11.42" transform="translate(423.71 145.86) scale(0.13)" xlink:href="#New_Symbol"/><use width="11.42" height="11.42" transform="translate(384.31 136.3) scale(0.13)" xlink:href="#New_Symbol"/><use width="11.42" height="11.42" transform="translate(220.28 176.64) scale(0.21)" xlink:href="#New_Symbol"/><use width="11.42" height="11.42" transform="translate(347.69 133.77) scale(0.13)" xlink:href="#New_Symbol"/><use width="11.42" height="11.42" transform="translate(265.1 106.77) scale(0.13)" xlink:href="#New_Symbol"/><use width="11.42" height="11.42" transform="translate(218.93 115.49) scale(0.13)" xlink:href="#New_Symbol"/><use width="11.42" height="11.42" transform="translate(233.02 133.06) scale(0.13)" xlink:href="#New_Symbol"/><use width="11.42" height="11.42" transform="translate(310.96 192.84) scale(0.13)" xlink:href="#New_Symbol"/><use width="11.42" height="11.42" transform="translate(423 121.18) scale(0.13)" xlink:href="#New_Symbol"/><use width="11.42" height="11.42" transform="translate(440.59 170.7) scale(0.13)" xlink:href="#New_Symbol"/><use width="11.42" height="11.42" transform="translate(438.55 321.05) scale(0.13)" xlink:href="#New_Symbol"/><use width="11.42" height="11.42" transform="translate(213.21 175.18) scale(0.13)" xlink:href="#New_Symbol"/><use width="11.42" height="11.42" transform="translate(250.93 139.97) scale(0.13)" xlink:href="#New_Symbol"/><use width="11.42" height="11.42" transform="translate(366.51 519.71) scale(0.25)" xlink:href="#New_Symbol"/><use width="11.42" height="11.42" transform="translate(407.72 597.15) scale(0.25)" xlink:href="#New_Symbol"/><use width="11.42" height="11.42" transform="translate(277.95 585.23) scale(0.25)" xlink:href="#New_Symbol"/><use width="11.42" height="11.42" transform="translate(375.52 535.55) scale(0.25)" xlink:href="#New_Symbol"/><use width="11.42" height="11.42" transform="translate(363.51 552.3) scale(0.13)" xlink:href="#New_Symbol"/><use width="11.42" height="11.42" transform="translate(357.6 546.7) scale(0.13)" xlink:href="#New_Symbol"/><use width="11.42" height="11.42" transform="translate(375.51 553.62) scale(0.13)" xlink:href="#New_Symbol"/><use width="11.42" height="11.42" transform="translate(205.79 108.2) scale(0.13)" xlink:href="#New_Symbol"/><use width="11.42" height="11.42" transform="translate(338.33 146.57) scale(0.18)" xlink:href="#New_Symbol"/><use width="11.42" height="11.42" transform="translate(299.46 97.15) scale(0.18)" xlink:href="#New_Symbol"/><use width="11.42" height="11.42" transform="translate(219.57 155.28) scale(0.13)" xlink:href="#New_Symbol"/></g><g id="nieve-5" data-name="nieve"><use width="11.42" height="11.42" transform="translate(93.08 325.89) scale(0.25)" xlink:href="#New_Symbol"/><use width="11.42" height="11.42" transform="translate(38.38 43.86) scale(0.25)" xlink:href="#New_Symbol"/><use width="11.42" height="11.42" transform="translate(101.5 47.21) scale(0.18)" xlink:href="#New_Symbol"/><use width="11.42" height="11.42" transform="translate(51.63 65.35) scale(0.25)" xlink:href="#New_Symbol"/><use width="11.42" height="11.42" transform="translate(165.05 28.96) scale(0.25)" xlink:href="#New_Symbol"/><use width="11.42" height="11.42" transform="translate(98.92 324.37) scale(0.13)" xlink:href="#New_Symbol"/><use width="11.42" height="11.42" transform="translate(31.96 93.03) scale(0.13)" xlink:href="#New_Symbol"/><use width="11.42" height="11.42" transform="translate(47.1 63.8) scale(0.13)" xlink:href="#New_Symbol"/><use width="11.42" height="11.42" transform="translate(99.51 51.75) scale(0.13)" xlink:href="#New_Symbol"/><use width="11.42" height="11.42" transform="translate(85.2 338.92) scale(0.13)" xlink:href="#New_Symbol"/><use width="11.42" height="11.42" transform="translate(113.01 330.38) scale(0.13)" xlink:href="#New_Symbol"/><use width="11.42" height="11.42" transform="translate(120.82 65) scale(0.13)" xlink:href="#New_Symbol"/><use width="11.42" height="11.42" transform="translate(137.35 36.74) scale(0.13)" xlink:href="#New_Symbol"/><use width="11.42" height="11.42" transform="translate(118.21 314.68) scale(0.13)" xlink:href="#New_Symbol"/><use width="11.42" height="11.42" transform="translate(86.73 51.82) scale(0.13)" xlink:href="#New_Symbol"/><use width="11.42" height="11.42" transform="translate(107.01 16.17) scale(0.13)" xlink:href="#New_Symbol"/><use width="11.42" height="11.42" transform="translate(14.43 16.88) scale(0.13)" xlink:href="#New_Symbol"/><use width="11.42" height="11.42" transform="translate(56.84 31.8) scale(0.18)" xlink:href="#New_Symbol"/></g><g id="nieve-6" data-name="nieve"><use width="11.42" height="11.42" transform="translate(69.86 399.84) rotate(180) scale(0.25)" xlink:href="#New_Symbol"/><use width="11.42" height="11.42" transform="translate(60.34 482.62) rotate(180) scale(0.25)" xlink:href="#New_Symbol"/><use width="11.42" height="11.42" transform="translate(47.09 461.14) rotate(180) scale(0.25)" xlink:href="#New_Symbol"/><use width="11.42" height="11.42" transform="translate(172.36 462.29) rotate(180) scale(0.13)" xlink:href="#New_Symbol"/><use width="11.42" height="11.42" transform="translate(48.15 385.46) rotate(180) scale(0.13)" xlink:href="#New_Symbol"/><use width="11.42" height="11.42" transform="translate(106.2 441.76) rotate(180) scale(0.13)" xlink:href="#New_Symbol"/><use width="11.42" height="11.42" transform="translate(51.62 462.69) rotate(180) scale(0.13)" xlink:href="#New_Symbol"/><use width="11.42" height="11.42" transform="translate(127.16 473.95) rotate(180) scale(0.13)" xlink:href="#New_Symbol"/><use width="11.42" height="11.42" transform="translate(48.15 600) rotate(180) scale(0.13)" xlink:href="#New_Symbol"/><use width="11.42" height="11.42" transform="translate(101.68 463.87) rotate(180) scale(0.13)" xlink:href="#New_Symbol"/><use width="11.42" height="11.42" transform="translate(154.74 416.37) rotate(180) scale(0.13)" xlink:href="#New_Symbol"/><use width="11.42" height="11.42" transform="translate(158.27 456.28) rotate(180) scale(0.13)" xlink:href="#New_Symbol"/><use width="11.42" height="11.42" transform="translate(103.11 420.27) rotate(180) scale(0.13)" xlink:href="#New_Symbol"/><use width="11.42" height="11.42" transform="translate(163.55 509.36) rotate(180) scale(0.21)" xlink:href="#New_Symbol"/><use width="11.42" height="11.42" transform="translate(105.48 496.82) rotate(180) scale(0.13)" xlink:href="#New_Symbol"/><use width="11.42" height="11.42" transform="translate(153.08 471.98) rotate(180) scale(0.13)" xlink:href="#New_Symbol"/><use width="11.42" height="11.42" transform="translate(129.94 456.28) rotate(180) scale(0.13)" xlink:href="#New_Symbol"/><use width="11.42" height="11.42" transform="translate(84.3 509.6) rotate(180) scale(0.13)" xlink:href="#New_Symbol"/><use width="11.42" height="11.42" transform="translate(140.32 498.96) rotate(180) scale(0.13)" xlink:href="#New_Symbol"/><use width="11.42" height="11.42" transform="translate(166.22 479.27) rotate(180) scale(0.13)" xlink:href="#New_Symbol"/><use width="11.42" height="11.42" transform="translate(41.88 494.69) rotate(180) scale(0.18)" xlink:href="#New_Symbol"/><use width="11.42" height="11.42" transform="translate(180.19 497.11) rotate(180) scale(0.18)" xlink:href="#New_Symbol"/><use width="11.42" height="11.42" transform="translate(64.29 531.47) rotate(180) scale(0.18)" xlink:href="#New_Symbol"/><use width="11.42" height="11.42" transform="translate(148.05 577.03) rotate(180) scale(0.21)" xlink:href="#New_Symbol"/><use width="11.42" height="11.42" transform="translate(114.6 586.65) rotate(180) scale(0.21)" xlink:href="#New_Symbol"/><use width="11.42" height="11.42" transform="translate(137.58 539.65) rotate(180) scale(0.13)" xlink:href="#New_Symbol"/><use width="11.42" height="11.42" transform="translate(65.43 585.23) rotate(180) scale(0.13)" xlink:href="#New_Symbol"/><use width="11.42" height="11.42" transform="translate(150.72 546.94) rotate(180) scale(0.13)" xlink:href="#New_Symbol"/><use width="11.42" height="11.42" transform="translate(164.69 564.78) rotate(180) scale(0.18)" xlink:href="#New_Symbol"/><use width="11.42" height="11.42" transform="translate(93.15 575.99) rotate(180) scale(0.18)" xlink:href="#New_Symbol"/><use width="11.42" height="11.42" transform="translate(171.78 587.65) rotate(180) scale(0.18)" xlink:href="#New_Symbol"/><use width="11.42" height="11.42" transform="translate(121.04 455.57) rotate(180) scale(0.13)" xlink:href="#New_Symbol"/></g><g id="nieve-7" data-name="nieve"><use width="11.42" height="11.42" transform="translate(170.78 212.38) scale(0.25)" xlink:href="#New_Symbol"/><use width="11.42" height="11.42" transform="translate(133.08 335.02) scale(0.25)" xlink:href="#New_Symbol"/><use width="11.42" height="11.42" transform="translate(81.62 265.82) scale(0.25)" xlink:href="#New_Symbol"/><use width="11.42" height="11.42" transform="translate(158.06 246.58) scale(0.25)" xlink:href="#New_Symbol"/><use width="11.42" height="11.42" transform="translate(172.2 388.76) scale(0.18)" xlink:href="#New_Symbol"/><use width="11.42" height="11.42" transform="translate(81.19 244.49) scale(0.18)" xlink:href="#New_Symbol"/><use width="11.42" height="11.42" transform="translate(63.29 428.21) scale(0.25)" xlink:href="#New_Symbol"/><use width="11.42" height="11.42" transform="translate(106.3 255.15) scale(0.25)" xlink:href="#New_Symbol"/><use width="11.42" height="11.42" transform="translate(214.56 243.07) scale(0.25)" xlink:href="#New_Symbol"/><use width="11.42" height="11.42" transform="translate(158.77 177.59) scale(0.25)" xlink:href="#New_Symbol"/><use width="11.42" height="11.42" transform="translate(61.16 276.27) scale(0.25)" xlink:href="#New_Symbol"/><use width="11.42" height="11.42" transform="translate(63.28 344.78) scale(0.13)" xlink:href="#New_Symbol"/><use width="11.42" height="11.42" transform="translate(72.67 298.99) scale(0.13)" xlink:href="#New_Symbol"/><use width="11.42" height="11.42" transform="translate(151.75 555.04) scale(0.13)" xlink:href="#New_Symbol"/><use width="11.42" height="11.42" transform="translate(41.22 556.47) scale(0.13)" xlink:href="#New_Symbol"/><use width="11.42" height="11.42" transform="translate(25.48 345.49) scale(0.13)" xlink:href="#New_Symbol"/><use width="11.42" height="11.42" transform="translate(160.19 274.57) scale(0.13)" xlink:href="#New_Symbol"/><use width="11.42" height="11.42" transform="translate(101.85 290.03) scale(0.13)" xlink:href="#New_Symbol"/><use width="11.42" height="11.42" transform="translate(160.89 263.94) scale(0.13)" xlink:href="#New_Symbol"/><use width="11.42" height="11.42" transform="translate(47.56 321.77) scale(0.13)" xlink:href="#New_Symbol"/><use width="11.42" height="11.42" transform="translate(17.24 168.56) scale(0.13)" xlink:href="#New_Symbol"/><use width="11.42" height="11.42" transform="translate(160.89 361.51) scale(0.13)" xlink:href="#New_Symbol"/><use width="11.42" height="11.42" transform="translate(48.28 266.37) scale(0.13)" xlink:href="#New_Symbol"/><use width="11.42" height="11.42" transform="translate(169.03 319.46) scale(0.21)" xlink:href="#New_Symbol"/><use width="11.42" height="11.42" transform="translate(17.95 335.02) scale(0.13)" xlink:href="#New_Symbol"/><use width="11.42" height="11.42" transform="translate(150.39 304.62) scale(0.13)" xlink:href="#New_Symbol"/><use width="11.42" height="11.42" transform="translate(40.5 351.05) scale(0.13)" xlink:href="#New_Symbol"/><use width="11.42" height="11.42" transform="translate(138.06 374.91) scale(0.13)" xlink:href="#New_Symbol"/><use width="11.42" height="11.42" transform="translate(170.21 289.94) scale(0.13)" xlink:href="#New_Symbol"/><use width="11.42" height="11.42" transform="translate(108.95 421.06) scale(0.13)" xlink:href="#New_Symbol"/><use width="11.42" height="11.42" transform="translate(50.46 248.06) scale(0.13)" xlink:href="#New_Symbol"/><use width="11.42" height="11.42" transform="translate(134.72 233.54) scale(0.18)" xlink:href="#New_Symbol"/><use width="11.42" height="11.42" transform="translate(91.5 368.49) scale(0.13)" xlink:href="#New_Symbol"/></g><g id="nieve-8" data-name="nieve"><use width="11.42" height="11.42" transform="translate(59.48 125.69) scale(0.25)" xlink:href="#New_Symbol"/><use width="11.42" height="11.42" transform="translate(85.1 161.78) scale(0.25)" xlink:href="#New_Symbol"/><use width="11.42" height="11.42" transform="translate(35.46 122.08) scale(0.18)" xlink:href="#New_Symbol"/><use width="11.42" height="11.42" transform="translate(172.2 54.88) scale(0.18)" xlink:href="#New_Symbol"/><use width="11.42" height="11.42" transform="translate(108.44 86.18) scale(0.25)" xlink:href="#New_Symbol"/><use width="11.42" height="11.42" transform="translate(130.28 170.12) scale(0.25)" xlink:href="#New_Symbol"/><use width="11.42" height="11.42" transform="translate(45.68 90.91) scale(0.25)" xlink:href="#New_Symbol"/><use width="11.42" height="11.42" transform="translate(116.84 114.79) scale(0.25)" xlink:href="#New_Symbol"/><use width="11.42" height="11.42" transform="translate(72.84 203.63) scale(0.13)" xlink:href="#New_Symbol"/><use width="11.42" height="11.42" transform="translate(111.99 222.95) scale(0.13)" xlink:href="#New_Symbol"/><use width="11.42" height="11.42" transform="translate(127.28 202.71) scale(0.13)" xlink:href="#New_Symbol"/><use width="11.42" height="11.42" transform="translate(83.04 199.18) scale(0.13)" xlink:href="#New_Symbol"/><use width="11.42" height="11.42" transform="translate(88.23 228.05) scale(0.13)" xlink:href="#New_Symbol"/><use width="11.42" height="11.42" transform="translate(122.17 353.92) scale(0.13)" xlink:href="#New_Symbol"/><use width="11.42" height="11.42" transform="translate(151.04 168.56) scale(0.13)" xlink:href="#New_Symbol"/><use width="11.42" height="11.42" transform="translate(98.08 84.72) scale(0.13)" xlink:href="#New_Symbol"/><use width="11.42" height="11.42" transform="translate(74.21 122.43) scale(0.13)" xlink:href="#New_Symbol"/><use width="11.42" height="11.42" transform="translate(140.17 61.9) scale(0.13)" xlink:href="#New_Symbol"/><use width="11.42" height="11.42" transform="translate(92.15 106.77) scale(0.13)" xlink:href="#New_Symbol"/><use width="11.42" height="11.42" transform="translate(116.83 157.63) scale(0.13)" xlink:href="#New_Symbol"/><use width="11.42" height="11.42" transform="translate(158.76 145.86) scale(0.13)" xlink:href="#New_Symbol"/><use width="11.42" height="11.42" transform="translate(119.36 136.3) scale(0.13)" xlink:href="#New_Symbol"/><use width="11.42" height="11.42" transform="translate(108.64 240.69) scale(0.21)" xlink:href="#New_Symbol"/><use width="11.42" height="11.42" transform="translate(82.74 133.77) scale(0.13)" xlink:href="#New_Symbol"/><use width="11.42" height="11.42" transform="translate(107.28 179.55) scale(0.13)" xlink:href="#New_Symbol"/><use width="11.42" height="11.42" transform="translate(121.37 197.11) scale(0.13)" xlink:href="#New_Symbol"/><use width="11.42" height="11.42" transform="translate(46.01 192.84) scale(0.13)" xlink:href="#New_Symbol"/><use width="11.42" height="11.42" transform="translate(158.05 121.18) scale(0.13)" xlink:href="#New_Symbol"/><use width="11.42" height="11.42" transform="translate(175.64 170.7) scale(0.13)" xlink:href="#New_Symbol"/><use width="11.42" height="11.42" transform="translate(173.6 321.05) scale(0.13)" xlink:href="#New_Symbol"/><use width="11.42" height="11.42" transform="translate(101.57 239.24) scale(0.13)" xlink:href="#New_Symbol"/><use width="11.42" height="11.42" transform="translate(101.56 519.71) scale(0.25)" xlink:href="#New_Symbol"/><use width="11.42" height="11.42" transform="translate(142.77 597.15) scale(0.25)" xlink:href="#New_Symbol"/><use width="11.42" height="11.42" transform="translate(13.01 585.23) scale(0.25)" xlink:href="#New_Symbol"/><use width="11.42" height="11.42" transform="translate(110.57 535.55) scale(0.25)" xlink:href="#New_Symbol"/><use width="11.42" height="11.42" transform="translate(98.56 552.3) scale(0.13)" xlink:href="#New_Symbol"/><use width="11.42" height="11.42" transform="translate(92.65 546.7) scale(0.13)" xlink:href="#New_Symbol"/><use width="11.42" height="11.42" transform="translate(110.56 553.62) scale(0.13)" xlink:href="#New_Symbol"/><use width="11.42" height="11.42" transform="translate(94.14 172.26) scale(0.13)" xlink:href="#New_Symbol"/><use width="11.42" height="11.42" transform="translate(73.38 146.57) scale(0.18)" xlink:href="#New_Symbol"/><use width="11.42" height="11.42" transform="translate(34.52 97.15) scale(0.18)" xlink:href="#New_Symbol"/><use width="11.42" height="11.42" transform="translate(107.92 219.34) scale(0.13)" xlink:href="#New_Symbol"/></g><g id="nieve-9" data-name="nieve"><use width="11.42" height="11.42" transform="translate(543.27 450.2) rotate(180) scale(0.25)" xlink:href="#New_Symbol"/><use width="11.42" height="11.42" transform="translate(589.82 572.31) rotate(180) scale(0.25)" xlink:href="#New_Symbol"/><use width="11.42" height="11.42" transform="translate(526.7 568.96) rotate(180) scale(0.18)" xlink:href="#New_Symbol"/><use width="11.42" height="11.42" transform="translate(576.57 550.82) rotate(180) scale(0.25)" xlink:href="#New_Symbol"/><use width="11.42" height="11.42" transform="translate(463.15 587.21) rotate(180) scale(0.25)" xlink:href="#New_Symbol"/><use width="11.42" height="11.42" transform="translate(537.43 451.72) rotate(180) scale(0.13)" xlink:href="#New_Symbol"/><use width="11.42" height="11.42" transform="translate(596.24 523.14) rotate(180) scale(0.13)" xlink:href="#New_Symbol"/><use width="11.42" height="11.42" transform="translate(581.1 552.37) rotate(180) scale(0.13)" xlink:href="#New_Symbol"/><use width="11.42" height="11.42" transform="translate(352.56 380.6) rotate(180) scale(0.13)" xlink:href="#New_Symbol"/><use width="11.42" height="11.42" transform="translate(528.7 564.42) rotate(180) scale(0.13)" xlink:href="#New_Symbol"/><use width="11.42" height="11.42" transform="translate(605.95 553.56) rotate(180) scale(0.13)" xlink:href="#New_Symbol"/><use width="11.42" height="11.42" transform="translate(551.15 437.17) rotate(180) scale(0.13)" xlink:href="#New_Symbol"/><use width="11.42" height="11.42" transform="translate(523.34 445.71) rotate(180) scale(0.13)" xlink:href="#New_Symbol"/><use width="11.42" height="11.42" transform="translate(507.39 551.17) rotate(180) scale(0.13)" xlink:href="#New_Symbol"/><use width="11.42" height="11.42" transform="translate(490.86 579.43) rotate(180) scale(0.13)" xlink:href="#New_Symbol"/><use width="11.42" height="11.42" transform="translate(388.95 416.01) rotate(180) scale(0.21)" xlink:href="#New_Symbol"/><use width="11.42" height="11.42" transform="translate(518.15 461.41) rotate(180) scale(0.13)" xlink:href="#New_Symbol"/><use width="11.42" height="11.42" transform="translate(355.34 362.93) rotate(180) scale(0.13)" xlink:href="#New_Symbol"/><use width="11.42" height="11.42" transform="translate(541.48 564.35) rotate(180) scale(0.13)" xlink:href="#New_Symbol"/><use width="11.42" height="11.42" transform="translate(521.2 600) rotate(180) scale(0.13)" xlink:href="#New_Symbol"/><use width="11.42" height="11.42" transform="translate(613.78 599.29) rotate(180) scale(0.13)" xlink:href="#New_Symbol"/><use width="11.42" height="11.42" transform="translate(365.71 405.61) rotate(180) scale(0.13)" xlink:href="#New_Symbol"/><use width="11.42" height="11.42" transform="translate(531.28 468.7) rotate(180) scale(0.13)" xlink:href="#New_Symbol"/><use width="11.42" height="11.42" transform="translate(571.36 584.37) rotate(180) scale(0.18)" xlink:href="#New_Symbol"/><use width="11.42" height="11.42" transform="translate(405.59 403.76) rotate(180) scale(0.18)" xlink:href="#New_Symbol"/></g><g id="nieve-10" data-name="nieve"><use width="11.42" height="11.42" transform="translate(558.34 216.33) scale(0.25)" xlink:href="#New_Symbol"/><use width="11.42" height="11.42" transform="translate(567.86 133.55) scale(0.25)" xlink:href="#New_Symbol"/><use width="11.42" height="11.42" transform="translate(262.67 212.25) scale(0.18)" xlink:href="#New_Symbol"/><use width="11.42" height="11.42" transform="translate(561.33 209.18) scale(0.18)" xlink:href="#New_Symbol"/><use width="11.42" height="11.42" transform="translate(581.11 155.03) scale(0.25)" xlink:href="#New_Symbol"/><use width="11.42" height="11.42" transform="translate(292.3 179.09) scale(0.25)" xlink:href="#New_Symbol"/><use width="11.42" height="11.42" transform="translate(455.84 153.88) scale(0.13)" xlink:href="#New_Symbol"/><use width="11.42" height="11.42" transform="translate(580.05 230.71) scale(0.13)" xlink:href="#New_Symbol"/><use width="11.42" height="11.42" transform="translate(522.01 174.41) scale(0.13)" xlink:href="#New_Symbol"/><use width="11.42" height="11.42" transform="translate(576.58 153.48) scale(0.13)" xlink:href="#New_Symbol"/><use width="11.42" height="11.42" transform="translate(501.04 142.22) scale(0.13)" xlink:href="#New_Symbol"/><use width="11.42" height="11.42" transform="translate(580.05 16.17) scale(0.13)" xlink:href="#New_Symbol"/><use width="11.42" height="11.42" transform="translate(526.52 152.3) scale(0.13)" xlink:href="#New_Symbol"/><use width="11.42" height="11.42" transform="translate(473.46 199.8) scale(0.13)" xlink:href="#New_Symbol"/><use width="11.42" height="11.42" transform="translate(469.93 159.89) scale(0.13)" xlink:href="#New_Symbol"/><use width="11.42" height="11.42" transform="translate(274.24 249.92) scale(0.13)" xlink:href="#New_Symbol"/><use width="11.42" height="11.42" transform="translate(264.6 186.87) scale(0.13)" xlink:href="#New_Symbol"/><use width="11.42" height="11.42" transform="translate(464.65 106.81) scale(0.21)" xlink:href="#New_Symbol"/><use width="11.42" height="11.42" transform="translate(522.72 119.35) scale(0.13)" xlink:href="#New_Symbol"/><use width="11.42" height="11.42" transform="translate(475.12 144.19) scale(0.13)" xlink:href="#New_Symbol"/><use width="11.42" height="11.42" transform="translate(498.27 159.89) scale(0.13)" xlink:href="#New_Symbol"/><use width="11.42" height="11.42" transform="translate(543.91 106.57) scale(0.13)" xlink:href="#New_Symbol"/><use width="11.42" height="11.42" transform="translate(487.89 117.21) scale(0.13)" xlink:href="#New_Symbol"/><use width="11.42" height="11.42" transform="translate(461.98 136.9) scale(0.13)" xlink:href="#New_Symbol"/><use width="11.42" height="11.42" transform="translate(586.32 121.48) scale(0.18)" xlink:href="#New_Symbol"/><use width="11.42" height="11.42" transform="translate(448.01 119.06) scale(0.18)" xlink:href="#New_Symbol"/><use width="11.42" height="11.42" transform="translate(563.92 84.7) scale(0.18)" xlink:href="#New_Symbol"/><use width="11.42" height="11.42" transform="translate(506.67 231.23) scale(0.18)" xlink:href="#New_Symbol"/><use width="11.42" height="11.42" transform="translate(537.91 182.55) scale(0.18)" xlink:href="#New_Symbol"/><use width="11.42" height="11.42" transform="translate(480.15 39.14) scale(0.21)" xlink:href="#New_Symbol"/><use width="11.42" height="11.42" transform="translate(513.61 29.52) scale(0.21)" xlink:href="#New_Symbol"/><use width="11.42" height="11.42" transform="translate(490.62 76.52) scale(0.13)" xlink:href="#New_Symbol"/><use width="11.42" height="11.42" transform="translate(562.78 30.94) scale(0.13)" xlink:href="#New_Symbol"/><use width="11.42" height="11.42" transform="translate(477.48 69.23) scale(0.13)" xlink:href="#New_Symbol"/><use width="11.42" height="11.42" transform="translate(463.51 51.39) scale(0.18)" xlink:href="#New_Symbol"/><use width="11.42" height="11.42" transform="translate(535.06 40.18) scale(0.18)" xlink:href="#New_Symbol"/><use width="11.42" height="11.42" transform="translate(456.43 28.52) scale(0.18)" xlink:href="#New_Symbol"/><use width="11.42" height="11.42" transform="translate(507.16 160.6) scale(0.13)" xlink:href="#New_Symbol"/></g><g id="nieve-11" data-name="nieve"><use width="11.42" height="11.42" transform="translate(457.43 403.79) rotate(180) scale(0.25)" xlink:href="#New_Symbol"/><use width="11.42" height="11.42" transform="translate(495.13 281.15) rotate(180) scale(0.25)" xlink:href="#New_Symbol"/><use width="11.42" height="11.42" transform="translate(456.01 227.41) rotate(180) scale(0.18)" xlink:href="#New_Symbol"/><use width="11.42" height="11.42" transform="translate(533.65 233.65) rotate(180) scale(0.25)" xlink:href="#New_Symbol"/><use width="11.42" height="11.42" transform="translate(521.9 361.02) rotate(180) scale(0.25)" xlink:href="#New_Symbol"/><use width="11.42" height="11.42" transform="translate(469.43 438.58) rotate(180) scale(0.25)" xlink:href="#New_Symbol"/><use width="11.42" height="11.42" transform="translate(567.04 339.9) rotate(180) scale(0.25)" xlink:href="#New_Symbol"/><use width="11.42" height="11.42" transform="translate(308.68 214.74) rotate(180) scale(0.13)" xlink:href="#New_Symbol"/><use width="11.42" height="11.42" transform="translate(356.6 183.24) rotate(180) scale(0.13)" xlink:href="#New_Symbol"/><use width="11.42" height="11.42" transform="translate(564.92 271.39) rotate(180) scale(0.13)" xlink:href="#New_Symbol"/><use width="11.42" height="11.42" transform="translate(600.09 179.73) rotate(180) scale(0.13)" xlink:href="#New_Symbol"/><use width="11.42" height="11.42" transform="translate(269.52 195.42) rotate(180) scale(0.13)" xlink:href="#New_Symbol"/><use width="11.42" height="11.42" transform="translate(555.53 317.18) rotate(180) scale(0.13)" xlink:href="#New_Symbol"/><use width="11.42" height="11.42" transform="translate(476.45 61.13) rotate(180) scale(0.13)" xlink:href="#New_Symbol"/><use width="11.42" height="11.42" transform="translate(586.99 59.7) rotate(180) scale(0.13)" xlink:href="#New_Symbol"/><use width="11.42" height="11.42" transform="translate(602.73 270.68) rotate(180) scale(0.13)" xlink:href="#New_Symbol"/><use width="11.42" height="11.42" transform="translate(526.36 326.14) rotate(180) scale(0.13)" xlink:href="#New_Symbol"/><use width="11.42" height="11.42" transform="translate(467.31 352.23) rotate(180) scale(0.13)" xlink:href="#New_Symbol"/><use width="11.42" height="11.42" transform="translate(580.64 294.4) rotate(180) scale(0.13)" xlink:href="#New_Symbol"/><use width="11.42" height="11.42" transform="translate(610.96 447.61) rotate(180) scale(0.13)" xlink:href="#New_Symbol"/><use width="11.42" height="11.42" transform="translate(467.31 254.66) rotate(180) scale(0.13)" xlink:href="#New_Symbol"/><use width="11.42" height="11.42" transform="translate(579.93 349.8) rotate(180) scale(0.13)" xlink:href="#New_Symbol"/><use width="11.42" height="11.42" transform="translate(610.25 281.15) rotate(180) scale(0.13)" xlink:href="#New_Symbol"/><use width="11.42" height="11.42" transform="translate(376.43 232.24) rotate(180) scale(0.13)" xlink:href="#New_Symbol"/><use width="11.42" height="11.42" transform="translate(587.7 265.12) rotate(180) scale(0.13)" xlink:href="#New_Symbol"/><use width="11.42" height="11.42" transform="translate(490.14 241.26) rotate(180) scale(0.13)" xlink:href="#New_Symbol"/><use width="11.42" height="11.42" transform="translate(356.6 246.93) rotate(180) scale(0.13)" xlink:href="#New_Symbol"/><use width="11.42" height="11.42" transform="translate(268.4 249.13) rotate(180) scale(0.13)" xlink:href="#New_Symbol"/><use width="11.42" height="11.42" transform="translate(577.74 368.11) rotate(180) scale(0.13)" xlink:href="#New_Symbol"/><use width="11.42" height="11.42" transform="translate(387.33 193.07) rotate(180) scale(0.13)" xlink:href="#New_Symbol"/></g><g id="nieve-12" data-name="nieve"><use width="11.42" height="11.42" transform="translate(568.73 490.48) rotate(180) scale(0.25)" xlink:href="#New_Symbol"/><use width="11.42" height="11.42" transform="translate(531.99 418.19) rotate(180) scale(0.25)" xlink:href="#New_Symbol"/><use width="11.42" height="11.42" transform="translate(592.74 494.09) rotate(180) scale(0.18)" xlink:href="#New_Symbol"/><use width="11.42" height="11.42" transform="translate(456.01 561.29) rotate(180) scale(0.18)" xlink:href="#New_Symbol"/><use width="11.42" height="11.42" transform="translate(519.77 529.99) rotate(180) scale(0.25)" xlink:href="#New_Symbol"/><use width="11.42" height="11.42" transform="translate(582.52 525.26) rotate(180) scale(0.25)" xlink:href="#New_Symbol"/><use width="11.42" height="11.42" transform="translate(511.36 501.38) rotate(180) scale(0.25)" xlink:href="#New_Symbol"/><use width="11.42" height="11.42" transform="translate(544.25 376.34) rotate(180) scale(0.13)" xlink:href="#New_Symbol"/><use width="11.42" height="11.42" transform="translate(534.05 380.78) rotate(180) scale(0.13)" xlink:href="#New_Symbol"/><use width="11.42" height="11.42" transform="translate(514.19 422.17) rotate(180) scale(0.13)" xlink:href="#New_Symbol"/><use width="11.42" height="11.42" transform="translate(477.16 447.61) rotate(180) scale(0.13)" xlink:href="#New_Symbol"/><use width="11.42" height="11.42" transform="translate(530.12 531.45) rotate(180) scale(0.13)" xlink:href="#New_Symbol"/><use width="11.42" height="11.42" transform="translate(553.99 493.74) rotate(180) scale(0.13)" xlink:href="#New_Symbol"/><use width="11.42" height="11.42" transform="translate(488.03 554.27) rotate(180) scale(0.13)" xlink:href="#New_Symbol"/><use width="11.42" height="11.42" transform="translate(536.06 509.4) rotate(180) scale(0.13)" xlink:href="#New_Symbol"/><use width="11.42" height="11.42" transform="translate(511.37 458.54) rotate(180) scale(0.13)" xlink:href="#New_Symbol"/><use width="11.42" height="11.42" transform="translate(469.44 470.31) rotate(180) scale(0.13)" xlink:href="#New_Symbol"/><use width="11.42" height="11.42" transform="translate(508.85 479.87) rotate(180) scale(0.13)" xlink:href="#New_Symbol"/><use width="11.42" height="11.42" transform="translate(545.46 482.4) rotate(180) scale(0.13)" xlink:href="#New_Symbol"/><use width="11.42" height="11.42" transform="translate(589.04 464.02) rotate(180) scale(0.13)" xlink:href="#New_Symbol"/><use width="11.42" height="11.42" transform="translate(509.81 400.42) rotate(180) scale(0.13)" xlink:href="#New_Symbol"/><use width="11.42" height="11.42" transform="translate(495.72 382.85) rotate(180) scale(0.13)" xlink:href="#New_Symbol"/><use width="11.42" height="11.42" transform="translate(582.2 423.33) rotate(180) scale(0.13)" xlink:href="#New_Symbol"/><use width="11.42" height="11.42" transform="translate(470.16 494.99) rotate(180) scale(0.13)" xlink:href="#New_Symbol"/><use width="11.42" height="11.42" transform="translate(452.56 445.47) rotate(180) scale(0.13)" xlink:href="#New_Symbol"/><use width="11.42" height="11.42" transform="translate(454.61 295.12) rotate(180) scale(0.13)" xlink:href="#New_Symbol"/><use width="11.42" height="11.42" transform="translate(526.65 96.46) rotate(180) scale(0.25)" xlink:href="#New_Symbol"/><use width="11.42" height="11.42" transform="translate(485.44 19.01) rotate(180) scale(0.25)" xlink:href="#New_Symbol"/><use width="11.42" height="11.42" transform="translate(517.63 80.62) rotate(180) scale(0.25)" xlink:href="#New_Symbol"/><use width="11.42" height="11.42" transform="translate(529.64 63.87) rotate(180) scale(0.13)" xlink:href="#New_Symbol"/><use width="11.42" height="11.42" transform="translate(535.55 69.47) rotate(180) scale(0.13)" xlink:href="#New_Symbol"/><use width="11.42" height="11.42" transform="translate(517.64 62.55) rotate(180) scale(0.13)" xlink:href="#New_Symbol"/><use width="11.42" height="11.42" transform="translate(522.95 407.71) rotate(180) scale(0.13)" xlink:href="#New_Symbol"/><use width="11.42" height="11.42" transform="translate(554.82 469.6) rotate(180) scale(0.18)" xlink:href="#New_Symbol"/><use width="11.42" height="11.42" transform="translate(593.69 519.02) rotate(180) scale(0.18)" xlink:href="#New_Symbol"/></g></g><g id="Neues_Symbol_22" data-name="Neues Symbol 22"><polygon class="cls-5" points="340.34 305.63 214.61 431.35 340.34 431.35 340.34 305.63"/><polygon class="cls-6" points="466.06 431.35 340.34 305.63 340.34 431.35 466.06 431.35"/><polygon class="cls-7" points="277.47 368.49 340.34 305.63 277.47 305.63 277.47 368.49"/><polygon class="cls-8" points="340.34 242.76 403.2 305.63 277.47 305.63 340.34 242.76"/><polygon class="cls-9" points="403.2 368.49 466.06 368.49 403.2 305.63 340.34 305.63 403.2 368.49"/><rect class="cls-10" x="308.98" y="431.35" width="62.86" height="62.86"/><polygon class="cls-11" points="214.61 368.49 277.47 305.63 277.47 368.49 214.61 368.49"/></g></symbol><symbol id="star" data-name="star" viewBox="0 0 34.12 34.12"><ellipse class="cls-12" cx="17.06" cy="17.06" rx="17.06" ry="1.19"/><ellipse class="cls-13" cx="17.06" cy="17.06" rx="1.19" ry="17.06"/><ellipse class="cls-14" cx="17.06" cy="17.06" rx="0.56" ry="7.98" transform="translate(-7.07 17.06) rotate(-45)"/><ellipse class="cls-15" cx="17.06" cy="17.06" rx="7.98" ry="0.56" transform="translate(-7.07 17.06) rotate(-45)"/></symbol></defs><title>Artboard 1</title><g id="Background"><rect class="cls-16" x="-4.46" y="-2.79" width="606.91" height="605.91"/></g><g id="tree"><g class="cls-17"><rect class="cls-18" x="-6.75" y="-6.75" width="612.9" height="612.9"/><use id="baum-3" data-name="baum" width="626.46" height="626.46" transform="translate(-278.14 -320.67) scale(1.7)" xlink:href="#baum"/><use width="34.12" height="34.12" transform="translate(228.99 20.49) scale(4.21)" xlink:href="#star"/></g></g></svg>