<?xml version="1.0" encoding="UTF-8" standalone="no"?>
<svg width="512px" height="512px" viewBox="0 0 512 512" version="1.1" xmlns="http://www.w3.org/2000/svg" xmlns:xlink="http://www.w3.org/1999/xlink">
    <!-- Generator: Sketch 41.1 (35376) - http://www.bohemiancoding.com/sketch -->
    <title>512 - Play Store</title>
    <desc>Created with Sketch.</desc>
    <defs></defs>
    <g id="Page-2" stroke="none" stroke-width="1" fill="none" fill-rule="evenodd">
        <g id="512---Play-Store">
            <g id="Group">
                <circle id="Oval" fill="#1E5A96" cx="256" cy="256" r="256"></circle>
                <path d="M377.569982,264.004981 C368.70156,288.191781 316.815939,287.981071 246.368193,288.191781 C246.368193,288.191781 291.888,281.727023 305.03896,256.186302 C318.198842,230.659029 333.696275,178.927522 333.696275,178.927522 C263.609869,178.918555 257.364501,203.594023 257.364501,203.594023 C257.364501,203.594023 213.067001,328.074222 197.270683,374 C74.5358289,374 94.1507437,313.073474 94.1507437,313.073474 L155.542706,140 L279.923661,140 L271.617322,164.917559 C271.617322,164.917559 281.752661,140 350.304491,140 C350.304491,140 420.582719,140.304857 412.325451,165.052055 C404.081566,189.785803 377.569982,264.004981 377.569982,264.004981" id="Fill-40" fill="#FFFFFF"></path>
            </g>
        </g>
    </g>
</svg>