<?xml version="1.0" encoding="UTF-8" standalone="no"?>
<svg width="2736px" height="2735px" viewBox="0 0 2736 2735" version="1.1" xmlns="http://www.w3.org/2000/svg" xmlns:xlink="http://www.w3.org/1999/xlink">
    <!-- Generator: Sketch 41.1 (35376) - http://www.bohemiancoding.com/sketch -->
    <title>Artboard</title>
    <desc>Created with Sketch.</desc>
    <defs>
        <rect id="path-1" x="0.3359375" y="1.6484375" width="2733" height="2735"></rect>
        <mask id="mask-2" maskContentUnits="userSpaceOnUse" maskUnits="objectBoundingBox" x="0" y="0" width="2733" height="2735" fill="white">
            <use xlink:href="#path-1"></use>
        </mask>
    </defs>
    <g id="Page-1" stroke="none" stroke-width="1" fill="none" fill-rule="evenodd">
        <g id="Artboard">
            <use id="Rectangle" stroke="#979797" mask="url(#mask-2)" stroke-width="2" fill="#1E5A96" xlink:href="#path-1"></use>
            <g id="puzzle_classic_bg_rgb" transform="translate(927.335938, 1256.729083)" fill="#FFFFFF">
                <g id="logo_classic_bg">
                    <g id="Page-1">
                        <g id="logo_classic_bg">
                            <path d="M291.668181,120.46218 L306.034086,120.46218 C310.211335,120.46218 313.396664,119.320027 315.578092,117.025772 C317.763516,114.733508 318.855228,111.788584 318.855228,108.189012 C318.855228,104.511837 317.763516,101.50125 315.578092,99.1532699 C313.396664,96.8033006 310.211335,95.6293107 306.034086,95.6293107 L291.668181,95.6293107 L291.668181,120.46218 Z M291.668181,135.238533 L291.668181,163.593372 L272.346659,163.593372 L272.346659,80.8529575 L306.034086,80.8529575 C315.873473,80.8529575 323.683113,83.3660917 329.457017,88.3824108 C335.23691,93.4066892 338.124859,99.9690934 338.124859,108.075593 C338.124859,116.221888 335.23691,122.786282 329.457017,127.768774 C323.683113,132.747287 315.873473,135.238533 306.034086,135.238533 L291.668181,135.238533 Z M414.333209,80.8533556 L414.333209,135.067807 C414.333209,144.503502 411.187798,151.814075 404.898973,157.005498 C398.612144,162.192941 390.375401,164.785668 380.194726,164.785668 C369.896303,164.785668 361.593694,162.192941 355.28491,157.005498 C348.978122,151.814075 345.820737,144.503502 345.820737,135.067807 L345.820737,80.8533556 L365.144256,80.8533556 L365.144256,135.067807 C365.144256,140.145811 366.457504,143.904568 369.078016,146.350048 C371.698525,148.789559 375.40476,150.013294 380.194726,150.013294 C384.942781,150.013294 388.597124,148.801498 391.163747,146.375916 C393.728375,143.950334 395.00969,140.181627 395.00969,135.067807 L395.00969,80.8533556 L414.333209,80.8533556 Z M445.636832,148.820799 L483.429658,148.820799 L483.429658,163.593173 L421.926502,163.593173 L421.926502,154.957383 L459.032769,95.6291117 L421.756858,95.6291117 L421.756858,80.8527584 L482.91873,80.8527584 L482.91873,89.1502797 L445.636832,148.820799 Z M513.169157,148.820799 L550.95999,148.820799 L550.95999,163.593173 L489.460826,163.593173 L489.460826,154.957383 L526.567091,95.6291117 L489.287189,95.6291117 L489.287189,80.8527584 L550.449059,80.8527584 L550.449059,89.1502797 L513.169157,148.820799 Z M577.508972,148.820799 L613.246106,148.820799 L613.246106,163.593173 L558.183456,163.593173 L558.183456,80.8527584 L577.508972,80.8527584 L577.508972,148.820799 Z M671.807425,128.192207 L639.259609,128.192207 L639.259609,148.8206 L677.619251,148.8206 L677.619251,163.592974 L619.940082,163.592974 L619.940082,80.8525597 L677.733011,80.8525597 L677.733011,95.6289126 L639.259609,95.6289126 L639.259609,113.415853 L671.807425,113.415853 L671.807425,128.192207 Z M735.924305,163.593372 L716.716545,163.593372 L716.716545,80.8529575 L735.924305,80.8529575 L735.924305,163.593372 Z M806.045807,95.6293107 L784.157661,95.6293107 L784.157661,163.593372 L764.834142,163.593372 L764.834142,95.6293107 L743.119632,95.6293107 L743.119632,80.8529575 L806.045807,80.8529575 L806.045807,95.6293107 Z M876.36729,134.558017 L876.481053,134.896285 C876.099853,144.596625 873.21789,152.00072 867.845144,157.118519 C862.46242,162.23234 854.666751,164.78527 844.446164,164.78527 C834.187653,164.78527 825.847125,161.641365 819.424581,155.353555 C813.002034,149.065745 809.790764,140.901542 809.790764,130.862934 L809.790764,113.587375 C809.790764,103.584584 812.876298,95.4303295 819.055356,89.1246112 C825.230419,82.8169032 833.251614,79.6610593 843.136905,79.6610593 C853.622938,79.6610593 861.638148,82.2955723 867.182531,87.5586282 C872.736895,92.8276536 875.868336,100.307362 876.590823,110.007701 L876.481053,110.347959 L857.726343,110.347959 C857.458903,104.967504 856.253428,100.971959 854.105926,98.3573448 C851.96042,95.7427301 848.300089,94.4354229 843.136905,94.4354229 C838.764067,94.4354229 835.325272,96.1884483 832.816526,99.6944991 C830.311773,103.20055 829.056402,107.791049 829.056402,113.473956 L829.056402,130.862934 C829.056402,136.583647 830.425536,141.207973 833.161803,144.727953 C835.896074,148.253901 839.656198,150.014886 844.446164,150.014886 C849.08245,150.014886 852.369564,148.781202 854.307503,146.317813 C856.24345,143.858404 857.347136,139.936482 857.610584,134.558017 L876.36729,134.558017 Z M33.1433676,192.798856 C-11.0480553,148.742401 -11.0480553,77.3160645 33.1433676,33.2615993 C77.3268076,-10.7908761 148.972716,-10.7888862 193.158151,33.2615993 C237.347579,77.3200441 237.343587,148.738421 193.158151,192.794876 C148.97072,236.851331 77.332795,236.855311 33.1433676,192.798856 Z M110.183576,126.875547 C110.183576,126.875547 130.548912,124.006236 136.432586,112.67027 C142.320252,101.342263 149.253727,78.3798187 149.253727,78.3798187 C117.897416,78.3778287 115.103269,89.329761 115.103269,89.329761 C115.103269,89.329761 95.2847872,144.576926 88.2175923,164.960572 C33.3066257,164.960572 42.0822415,137.91901 42.0822415,137.91901 L69.5487019,61.1002805 L125.196126,61.1002805 L121.479911,72.1636421 C121.479911,72.1636421 126.014411,61.1002805 156.684161,61.1002805 C156.684161,61.1002805 188.126293,61.2375777 184.432032,72.2213468 C180.743759,83.2011362 168.882607,116.140505 168.882607,116.140505 C164.914919,126.875547 141.701548,126.782026 110.183576,126.875547 Z" id="Fill-1"></path>
                        </g>
                    </g>
                </g>
            </g>
        </g>
    </g>
</svg>